<?xml version="1.0" encoding="UTF-8" standalone="no"?>
<!-- Generator: Adobe Illustrator 24.2.3, SVG Export Plug-In . SVG Version: 6.00 Build 0)  -->
<svg xmlns:inkscape="http://www.inkscape.org/namespaces/inkscape" xmlns:sodipodi="http://sodipodi.sourceforge.net/DTD/sodipodi-0.dtd" xmlns:xlink="http://www.w3.org/1999/xlink" xmlns="http://www.w3.org/2000/svg" xmlns:svg="http://www.w3.org/2000/svg" version="1.1" x="0px" y="0px" viewBox="0 0 8503.94 2834.65" style="enable-background:new 0 0 8503.94 2834.65;" xml:space="preserve" id="svg3591" sodipodi:docname="source_v1.svg" inkscape:version="1.2.1 (9c6d41e, 2022-07-14)"><defs id="defs3595"/><sodipodi:namedview id="namedview3593" pagecolor="#ffffff" bordercolor="#000000" borderopacity="0.25" inkscape:showpageshadow="2" inkscape:pageopacity="0.0" inkscape:pagecheckerboard="0" inkscape:deskcolor="#d1d1d1" showgrid="false" inkscape:zoom="0.16651086" inkscape:cx="4092.8261" inkscape:cy="1528.4288" inkscape:window-width="1800" inkscape:window-height="1097" inkscape:window-x="0" inkscape:window-y="44" inkscape:window-maximized="1" inkscape:current-layer="svg3591"/>
<style type="text/css" id="style2">
	.st0{fill:#BAAE96;stroke:#000000;stroke-miterlimit:10;}
	.st1{fill:#BAAE96;stroke:#000000;stroke-width:0.5;stroke-miterlimit:10;}
	.st2{display:none;}
	.st3{display:inline;fill:none;stroke:#000000;stroke-miterlimit:10;}
	.st4{fill:none;stroke:#000000;stroke-miterlimit:10;}
	.st5{display:inline;}
	.st6{fill:#C2B59B;stroke:#000000;stroke-miterlimit:10;}
	.st7{fill:#726658;stroke:#000000;stroke-miterlimit:10;}
	.st8{fill:#C2B59B;stroke:#000000;stroke-width:0.5;stroke-miterlimit:10;}
	.st9{display:none;fill:none;stroke:#000000;stroke-miterlimit:10;}
	.st10{display:inline;fill:none;stroke:#000000;stroke-width:0.25;stroke-miterlimit:10;}
	.st11{fill:none;stroke:#000000;stroke-width:0.5;stroke-miterlimit:10;}
	.st12{display:inline;fill:#9B8579;stroke:#000000;stroke-miterlimit:10;}
	.st13{fill:#9B8579;stroke:#000000;stroke-miterlimit:10;}
	.st14{fill:#C2B59B;stroke:#000000;stroke-width:0.25;stroke-miterlimit:10;}
	.st15{display:none;fill:none;stroke:#000000;stroke-width:0.5;stroke-miterlimit:10;}
	.st16{fill:#939598;stroke:#000000;stroke-miterlimit:10;}
	.st17{fill:#808285;stroke:#000000;stroke-miterlimit:10;}
	.st18{fill:#3A4C42;stroke:#000000;stroke-miterlimit:10;}
	.st19{fill:none;stroke:#000000;stroke-width:2;stroke-miterlimit:10;}
</style>



<g id="Layer_4" style="display:inline" inkscape:label="L6">
	<path class="st0" d="m 2950.98,1666.03 c 0,0 -58.92,229.54 -70.52,245.71 -11.6,16.17 -37.53,53.17 -61.73,76.56 0,0 -18.56,-71.52 -14.87,-108.01 3.69,-36.49 48.03,-221.35 48.03,-221.35 z" id="path33"/>
	<path class="st0" d="m 2910.05,1629.89 c 0,0 -122.26,257.58 -177.6,304.19 0,0 -25.9,-61.82 -20.02,-80.35 5.89,-18.53 75.28,-245.88 88.9,-270.27 z" id="path35"/>
	<path class="st0" d="m 2789.23,1608.19 c 0,0 -52.91,196.94 -109.42,279.93 0,0 -27.07,-74.2 27.42,-330.02 z" id="path37"/>
	<path class="st0" d="m 2782.75,1551.7 c 0,0 -94.37,194.81 -122.16,228.03 -27.79,33.22 -26.16,27.07 -40.1,29.96 0,0 -45.16,-57.32 -34.01,-111.29 11.15,-53.98 40.59,-215.66 51.17,-233.68 z" id="path39"/>
	<path class="st0" d="m 2708.98,1402.81 c 0,0 -75.17,236.86 -150.75,343.21 0,0 -51.97,-88.48 -46.2,-140.47 5.77,-51.99 16.93,-189.99 27.35,-214.56 z" id="path41"/>
	<path class="st0" d="m 2278.03,1091.37 c 0,0 -65.14,239.82 -136.18,349.25 0,0 -55.65,-86.22 -52.07,-138.4 3.58,-52.19 8.92,-190.54 18.3,-215.53 z" id="path43"/>
	<path class="st0" d="m 2608.18,1252.53 c 0,0 -23.32,222.71 -140.51,369.37 0,0 -79.11,-194.85 11.99,-388.38 z" id="path45"/>
	<path class="st0" d="m 2512.47,1245.28 c 0,0 -68.42,245.64 -111.16,329.91 0,0 -57.53,-89.47 -50.26,-144.13 7.27,-54.65 43.23,-262.54 43.23,-262.54 z" id="path47"/>
	<path class="st0" d="m 2396.93,1126.56 c 0,0 -4.58,223.88 -109.07,379.84 0,0 -95.16,-187.54 -20.58,-388.02 z" id="path49"/>
	<path class="st0" d="m 2542.7,1030.82 c 0,0 12.49,245.36 -5.31,348.89 0,0 -133.9,-71.99 -129.49,-173.5 4.41,-101.51 -5.13,-211.93 -5.13,-211.93 z" id="path51"/>
	<path class="st0" d="m 2473.89,944.59 c 0,0 8.05,343.17 -1.23,455.71 0,0 -45.84,-9.1 -72.21,-67.08 -26.37,-57.98 -105.49,-356.66 -105.49,-356.66 z" id="path53"/>
	<path class="st0" d="m 2371.45,971.47 c 0,0 -82.73,378.66 -158.43,420.85 0,0 -73.12,-168.85 9.83,-461.93 z" id="path55"/>
	<path class="st0" d="m 2265.7,926.86 -148.2,313.07 c 0,0 -25.91,48.28 -31.79,79.58 0,0 -39.59,-51.5 -44.49,-90.27 -4.91,-38.77 95.11,-370.7 95.11,-370.7 z" id="path57"/>
	<path class="st0" d="m 2206.17,880.09 c 0,0 -225.53,313.94 -248.41,382.66 0,0 -30.73,-33.66 -21.55,-75.99 9.18,-42.33 135.3,-388.37 135.3,-388.37 z" id="path59"/>
	<path class="st0" d="m 2127.41,894.34 c 0,0 -238.47,305.55 -324.97,310.82 0,0 7.16,-183.86 208.79,-412.17 z" id="path61"/>
	<path class="st0" d="m 2076.73,780.09 c 0,0 -301.2,322.77 -342.01,349.98 0,0 67.02,-176.78 219.37,-394.43 z" id="path63"/>
	<path class="st0" d="m 1908.86,805.23 c 0,0 -108.28,200 -159.24,243.32 -50.96,43.31 -104.46,107.01 -104.46,107.01 0,0 15.29,-206.37 117.84,-341.41 z" id="path65"/>
	<path class="st0" d="m 1902.49,740.26 c 0,0 -374.53,369.43 -433.13,394.91 0,0 -3.82,-19.11 0,-31.85 0,0 43.5,-47.55 70.25,-150.78 -5.92,-4.59 91.7,-63.4 138.57,-125.08 z" id="path67"/>
	<path class="st0" d="m 2692.26,993.69 -5.62,275.57 c 0,0 -19.8,161.08 -45.91,237.15 0,0 -85.89,-103.15 -108.01,-216.59 l 27.23,-347.17 z" id="path69"/>
</g>











</svg>
