<?xml version="1.0" encoding="UTF-8" standalone="no"?>
<!-- Generator: Adobe Illustrator 24.2.3, SVG Export Plug-In . SVG Version: 6.00 Build 0)  -->
<svg xmlns:inkscape="http://www.inkscape.org/namespaces/inkscape" xmlns:sodipodi="http://sodipodi.sourceforge.net/DTD/sodipodi-0.dtd" xmlns:xlink="http://www.w3.org/1999/xlink" xmlns="http://www.w3.org/2000/svg" xmlns:svg="http://www.w3.org/2000/svg" version="1.1" x="0px" y="0px" viewBox="0 0 8503.94 2834.65" style="enable-background:new 0 0 8503.94 2834.65;" xml:space="preserve" id="svg3591" sodipodi:docname="source_v1.svg" inkscape:version="1.2.1 (9c6d41e, 2022-07-14)"><defs id="defs3595"/><sodipodi:namedview id="namedview3593" pagecolor="#ffffff" bordercolor="#000000" borderopacity="0.25" inkscape:showpageshadow="2" inkscape:pageopacity="0.0" inkscape:pagecheckerboard="0" inkscape:deskcolor="#d1d1d1" showgrid="false" inkscape:zoom="0.16651086" inkscape:cx="4092.8261" inkscape:cy="1528.4288" inkscape:window-width="1800" inkscape:window-height="1097" inkscape:window-x="0" inkscape:window-y="44" inkscape:window-maximized="1" inkscape:current-layer="svg3591"/>
<style type="text/css" id="style2">
	.st0{fill:#BAAE96;stroke:#000000;stroke-miterlimit:10;}
	.st1{fill:#BAAE96;stroke:#000000;stroke-width:0.5;stroke-miterlimit:10;}
	.st2{display:none;}
	.st3{display:inline;fill:none;stroke:#000000;stroke-miterlimit:10;}
	.st4{fill:none;stroke:#000000;stroke-miterlimit:10;}
	.st5{display:inline;}
	.st6{fill:#C2B59B;stroke:#000000;stroke-miterlimit:10;}
	.st7{fill:#726658;stroke:#000000;stroke-miterlimit:10;}
	.st8{fill:#C2B59B;stroke:#000000;stroke-width:0.5;stroke-miterlimit:10;}
	.st9{display:none;fill:none;stroke:#000000;stroke-miterlimit:10;}
	.st10{display:inline;fill:none;stroke:#000000;stroke-width:0.25;stroke-miterlimit:10;}
	.st11{fill:none;stroke:#000000;stroke-width:0.5;stroke-miterlimit:10;}
	.st12{display:inline;fill:#9B8579;stroke:#000000;stroke-miterlimit:10;}
	.st13{fill:#9B8579;stroke:#000000;stroke-miterlimit:10;}
	.st14{fill:#C2B59B;stroke:#000000;stroke-width:0.25;stroke-miterlimit:10;}
	.st15{display:none;fill:none;stroke:#000000;stroke-width:0.5;stroke-miterlimit:10;}
	.st16{fill:#939598;stroke:#000000;stroke-miterlimit:10;}
	.st17{fill:#808285;stroke:#000000;stroke-miterlimit:10;}
	.st18{fill:#3A4C42;stroke:#000000;stroke-miterlimit:10;}
	.st19{fill:none;stroke:#000000;stroke-width:2;stroke-miterlimit:10;}
</style>


<g id="Layer_3" style="display:inline" inkscape:label="L7">
	<path class="st0" d="m 2893.43,1891.22 -104.17,330.1 c 0,0 -34.72,129.64 16.2,157.42 50.92,27.78 92.6,-22.8 118.06,-100.52 25.46,-77.73 129.64,-386.99 129.64,-386.99 h -159.73 z" id="path10"/>
	<path class="st0" d="m 2914.27,1862.74 -120.38,344.69 c 0,0 -62.5,142.38 -120.38,120.96 -57.88,-21.42 -62.5,-51.51 -32.41,-183.47 30.09,-131.95 106.49,-417.78 106.49,-417.78 z" id="path12"/>
	<path class="st0" d="m 2777.7,1662.08 -130.52,468.55 c 0,0 -47.4,142.2 -124.73,147.18 -77.33,4.98 -117.25,-37.42 -92.3,-122.24 24.95,-84.82 183.18,-604.14 183.18,-604.14 z" id="path14"/>
	<path class="st0" d="m 2629.72,1544.38 -182.11,583.75 c 0,0 -44.9,124.73 -164.65,127.23 -119.75,2.5 -49.89,-137.21 -49.89,-137.21 l 219.53,-648.07 z" id="path16"/>
	<path class="st0" d="m 2499.55,1365.16 -148.8,490.7 c 0,0 -58.7,185.37 -178.55,309.7 -119.85,124.33 -158.28,22.61 -158.28,0 0,-22.61 14.01,-34.01 45.21,-108.51 0,0 65.86,-129.27 99.73,-253.6 33.87,-124.33 159.32,-551.67 159.32,-551.67 z" id="path18"/>
	<path class="st0" d="m 2350.95,1315.13 c 0,0 -113.68,303.39 -185.61,478.38 -71.93,174.99 -204,389.61 -349.28,508.47 0,0 69.34,0 373.1,-1089.58 z" id="path20"/>
	<path class="st0" d="m 2331.14,1205.79 c 0,0 -55.2,222.55 -145.99,343.38 -32,42.59 -170.8,145.28 -261.69,320.27 -90.89,174.99 -196.55,310.36 -417.76,458.94 0,0 282.07,-381.61 544.38,-1157.66 z" id="path22"/>
	<path class="st0" d="m 2266.96,1124.84 c 0,0 -160.71,360.9 -287.59,484.95 -126.88,124.05 -186.09,84.58 -307.33,225.56 -121.24,140.97 -496.23,583.64 -673.86,603.37 0,0 444.7,-395.84 1122.7,-1742.61 z" id="path24"/>
	<path class="st0" d="m 2208.78,1096.19 c 0,0 -396.15,486.21 -539.69,571.65 -143.54,85.44 -120.27,50.54 -169.14,76.13 -48.87,25.6 -349.06,260.63 -451.45,363.02 -102.39,102.39 -407.23,309.5 -579.44,316.48 0,0 920.2,-636.54 1293.3,-1432.26 z" id="path26"/>
	<path class="st0" d="m 1994.71,960.69 c 0,0 -310.62,325.12 -372.13,373.33 -61.51,48.21 -54.86,41.56 -119.69,74.81 -64.83,33.25 -161.25,41.56 -317.51,177.87 -156.26,136.31 -358.06,270.26 -671.33,360.09 0,0 523.42,-276.87 1239.79,-1062.35 z" id="path28"/>
	<path class="st0" d="m 1699.78,840.81 c 0,0 -218.92,232.21 -994.45,629.28 0,0 232.66,-37.23 375.36,-108.57 142.7,-71.35 235.76,-71.35 310.21,-111.68 74.45,-40.33 319.52,-207.84 362.95,-304.01 z" id="path30"/>
</g>












</svg>
