<?xml version="1.0" encoding="UTF-8" standalone="no"?>
<!-- Generator: Adobe Illustrator 24.2.3, SVG Export Plug-In . SVG Version: 6.00 Build 0)  -->
<svg xmlns:inkscape="http://www.inkscape.org/namespaces/inkscape" xmlns:sodipodi="http://sodipodi.sourceforge.net/DTD/sodipodi-0.dtd" xmlns:xlink="http://www.w3.org/1999/xlink" xmlns="http://www.w3.org/2000/svg" xmlns:svg="http://www.w3.org/2000/svg" version="1.1" x="0px" y="0px" viewBox="0 0 8503.94 2834.65" style="enable-background:new 0 0 8503.94 2834.65;" xml:space="preserve" id="svg3591" sodipodi:docname="source_v1.svg" inkscape:version="1.2.1 (9c6d41e, 2022-07-14)"><defs id="defs3595"/><sodipodi:namedview id="namedview3593" pagecolor="#ffffff" bordercolor="#000000" borderopacity="0.25" inkscape:showpageshadow="2" inkscape:pageopacity="0.0" inkscape:pagecheckerboard="0" inkscape:deskcolor="#d1d1d1" showgrid="false" inkscape:zoom="0.16651086" inkscape:cx="4092.8261" inkscape:cy="1528.4288" inkscape:window-width="1800" inkscape:window-height="1097" inkscape:window-x="0" inkscape:window-y="44" inkscape:window-maximized="1" inkscape:current-layer="svg3591"/>
<style type="text/css" id="style2">
	.st0{fill:#BAAE96;stroke:#000000;stroke-miterlimit:10;}
	.st1{fill:#BAAE96;stroke:#000000;stroke-width:0.5;stroke-miterlimit:10;}
	.st2{display:none;}
	.st3{display:inline;fill:none;stroke:#000000;stroke-miterlimit:10;}
	.st4{fill:none;stroke:#000000;stroke-miterlimit:10;}
	.st5{display:inline;}
	.st6{fill:#C2B59B;stroke:#000000;stroke-miterlimit:10;}
	.st7{fill:#726658;stroke:#000000;stroke-miterlimit:10;}
	.st8{fill:#C2B59B;stroke:#000000;stroke-width:0.5;stroke-miterlimit:10;}
	.st9{display:none;fill:none;stroke:#000000;stroke-miterlimit:10;}
	.st10{display:inline;fill:none;stroke:#000000;stroke-width:0.25;stroke-miterlimit:10;}
	.st11{fill:none;stroke:#000000;stroke-width:0.5;stroke-miterlimit:10;}
	.st12{display:inline;fill:#9B8579;stroke:#000000;stroke-miterlimit:10;}
	.st13{fill:#9B8579;stroke:#000000;stroke-miterlimit:10;}
	.st14{fill:#C2B59B;stroke:#000000;stroke-width:0.25;stroke-miterlimit:10;}
	.st15{display:none;fill:none;stroke:#000000;stroke-width:0.5;stroke-miterlimit:10;}
	.st16{fill:#939598;stroke:#000000;stroke-miterlimit:10;}
	.st17{fill:#808285;stroke:#000000;stroke-miterlimit:10;}
	.st18{fill:#3A4C42;stroke:#000000;stroke-miterlimit:10;}
	.st19{fill:none;stroke:#000000;stroke-width:2;stroke-miterlimit:10;}
</style>








<g id="Layer_13" style="display:inline" inkscape:label="L1">
	<path class="st0" d="m 3808.83,1350.38 c -23.24,31.83 -60.79,75.49 -93.43,77.93 0,0 -4.47,-54.01 -3.75,-113.69 0.08,-6.34 0.21,-12.74 0.42,-19.14 2.51,1.45 4.98,2.87 7.42,4.27 37.89,21.78 68.71,39.12 89.34,50.63 z" id="path238"/>
	<path class="st0" d="m 3719.49,1299.75 c -2.62,5.1 -5.25,10.08 -7.84,14.87 -15.68,29.13 -29.41,51.23 -29.41,51.23 -16.19,17.73 -35.47,9.25 -35.47,9.25 -12.65,-8.43 -14.66,-38.84 -12.73,-71.25 1.02,-17.32 3.17,-35.21 5.41,-50.63 1.5,0.88 3,1.76 4.49,2.64 24.38,14.32 47.25,27.6 68.13,39.62 2.51,1.45 4.98,2.87 7.42,4.27 z" id="path240"/>
	<path class="st0" d="m 3642.31,1254.1 c -2.43,17.95 -5.2,36.54 -7.58,48.41 -1.07,5.34 -2.07,9.31 -2.92,11.25 -5.57,12.62 -37.47,39.63 -57.24,45.98 0,0 -9.09,-60.55 -1.96,-104.9 0.09,-0.58 0.19,-1.15 0.28,-1.74 0.01,0 0.01,-0.01 0.01,-0.01 1.66,-10 3.93,-21.12 6.45,-32.36 3.5,1.87 6.98,3.73 10.44,5.58 16.47,8.78 32.48,17.25 47.91,25.36 1.54,0.82 3.08,1.63 4.61,2.43 z" id="path242"/>
	<path class="st0" d="m 3591.02,1221.75 c -5.46,9.33 -11.15,18.63 -16.36,27.11 0,0 0,0.01 -0.01,0.01 -5.61,9.15 -10.65,17.34 -14.22,23.56 -15.21,26.54 -77.44,54.72 -77.44,54.72 -0.88,-22.48 5.33,-60.99 12.87,-98.29 3.59,-17.71 7.47,-35.15 11.04,-50.45 4.17,2.17 8.31,4.34 12.44,6.48 20.86,10.86 41.3,21.38 61.13,31.49 3.54,1.81 7.05,3.6 10.55,5.37 z" id="path244"/>
	<path class="st0" d="m 3522.52,1171.37 c -3.36,14.27 -7.44,27.78 -12.28,37.86 -1.49,3.11 -3.18,6.07 -5.03,8.88 -19.96,30.49 -58.02,44.28 -58.02,44.28 -20.53,-19.38 -44.53,-59.31 -52.45,-93.89 -1.35,-5.88 -2.24,-12.45 -2.8,-19.3 -0.7,-8.6 1.71,-53.97 1.84,-62.67 2.32,0.89 124.36,83.27 128.74,84.84 z" id="path246"/>
	<path class="st0" d="m 3423.27,1019.56 c -2.03,70.55 -11.03,151.73 -11.03,151.73 -0.57,1.05 -1.13,2.08 -1.69,3.11 -48.24,87.93 -81.19,81.8 -81.19,81.8 -1.89,-60.15 -25.85,-83.21 -25.85,-83.21 -3.8,-8.67 -6.96,-24.77 -9.58,-44.52 0,0 -0.01,-0.01 0.01,-0.02 -4.57,-34.48 -7.5,-80.05 -9.26,-116.46 3.43,0.29 6.89,0.56 10.37,0.83 34.16,2.62 70.22,4.59 107.62,6.01 6.82,0.27 13.7,0.51 20.6,0.73 z" id="path248"/>
	<path class="st0" d="m 3298.13,1003.79 c 2.4,27.63 3.59,59.43 4.17,86.32 0.73,33.92 0.49,60.01 0.49,60.01 -13.66,82.75 -53.93,63.83 -53.93,63.83 -21.38,-43.46 -38.55,-93.88 -51.43,-138.56 -17.22,-59.71 -26.78,-109.18 -28.45,-118.15 6.8,2.58 13.64,5.15 20.51,7.72 29.21,10.88 58.93,21.56 88.84,31.97 6.6,2.31 13.19,4.58 19.8,6.86 z" id="path250"/>
	<path class="st0" d="m 3236.48,916.9 c 0.7,10.79 6.7,72.82 7.3,83.25 1.72,29.67 2.92,56.43 2.8,71.79 -0.38,49.79 -49.84,81.49 -49.84,81.49 -18.56,-17.4 -28.79,-73 -44.75,-104.21 -3.16,-6.17 -6.59,-15.94 -10.06,-27.67 -8.29,-27.9 -16.83,-66.84 -22.5,-94.3 6.74,2.35 114.42,-11.19 117.05,-10.35 z" id="path252"/>
	<path class="st0" d="m 3126.48,848.98 c 8.06,27.25 17.39,59.79 25.07,89.29 9.05,34.75 15.82,65.28 15.52,77.95 -0.86,37.28 -21.15,56.21 -21.15,56.21 -9.85,-5.63 -49.46,-52.99 -61.39,-65.77 -1.04,-1.11 -2.34,-3.36 -3.86,-6.55 -11.07,-23.23 -33.48,-96.12 -46.19,-138.69 5.97,-0.71 11.98,-1.46 18.01,-2.23 17.37,-2.21 35,-4.59 52.82,-7.14 7.02,-0.99 14.07,-2.02 21.17,-3.07 z" id="path254"/>
	<path class="st0" d="m 3018.82,782.66 c 30.58,52.4 60.88,114.95 60.88,114.95 0.06,0.96 0.12,1.91 0.17,2.85 4.66,80.77 -22.23,87.42 -22.23,87.42 -28.72,-43.45 -56.73,-52.25 -56.73,-52.25 -6.72,-5.07 -16.35,-15.8 -27.24,-29.4 0,0 -0.01,-0.01 0,-0.01 -19.01,-23.73 -41.87,-56.15 -59.7,-82.24 2.64,-0.95 5.29,-1.92 7.97,-2.9 26.19,-9.63 53.47,-20.38 81.47,-31.99 5.12,-2.11 10.26,-4.26 15.41,-6.43 z" id="path256"/>
	<path class="st0" d="m 2904.09,687.59 c 22.82,25.31 45.88,53.32 64.17,76.21 0,0.01 0.01,0.01 0.01,0.01 21.59,27.05 36.52,46.98 36.52,46.98 7.59,32.29 -13,94.69 -13,94.69 -19.33,-27.78 -68.74,-56.58 -90.61,-68.45 -6.6,-3.58 -10.71,-5.62 -10.71,-5.62 l -82.79,-95.18 c 5.43,-2.4 10.94,-4.9 16.53,-7.53 22.88,-10.69 47.15,-23.14 72.45,-37.01 2.47,-1.36 4.94,-2.72 7.43,-4.1 z" id="path258"/>
	<path class="st0" d="m 2845.44,642.7 c 22.9,42.99 45.57,84.91 50.91,92.62 3.91,5.66 7.05,15.04 9.47,25.77 4.76,21.02 6.79,47.18 6.64,60.45 -0.23,20.03 -33.63,56.71 -33.63,56.71 -12.06,-29.56 -72.66,-61.92 -98.33,-89.7 -5.67,-6.13 -13.34,-18.17 -21.85,-33.21 -12.39,-21.89 -26.55,-50.13 -38.94,-75.75 2.2,-0.74 4.39,-1.49 6.6,-2.21 28.66,-9.52 58.21,-18.28 88.52,-26.1 4.32,-1.11 8.71,-2.29 13.16,-3.52 5.71,-1.6 11.53,-3.28 17.45,-5.06 z" id="path260"/>
	<path class="st0" d="m 2761.25,550.88 c 15.54,24.71 31.1,50.28 43.45,72.36 11.91,21.28 20.85,39.33 23.92,50.24 13.27,47.07 -12.33,60.78 -12.33,60.78 -50.91,-28.3 -73.49,-34.18 -92.52,-56.95 h -0.01 c -8.77,-10.5 -30.83,-43.95 -52.06,-76.96 0.57,-0.35 1.14,-0.68 1.73,-1.02 v -0.01 c 26.02,-15.6 53.26,-30.78 81.61,-45.28 2.07,-1.06 4.13,-2.12 6.21,-3.16 z" id="path262"/>
	<path class="st0" d="m 2672.39,592.14 c 22.42,22.81 46.37,46.88 65.67,65.59 h 0.01 c 0.33,0.32 0.65,0.64 0.98,0.95 51.5,49.82 50.37,113.83 50.37,113.83 -36.37,-2.51 -103.01,-33.08 -103.01,-33.08 l -19.65,-13.15 -76.15,-50.98 c 2.46,-2.71 4.94,-5.43 7.44,-8.16 22.46,-24.45 46.77,-49.14 72.87,-73.64 0.48,-0.46 0.97,-0.9 1.47,-1.36 z" id="path264"/>
	<path class="st0" d="m 2588.53,499.88 c 23.31,13.02 45.3,25.81 58.66,34.82 6.06,4.08 11.94,8.92 17.57,14.24 31.52,29.76 55.19,74.72 56.7,87.21 1.78,14.73 0.35,11.59 -10.49,12.74 -8.69,0.93 -47.79,-5.18 -80.37,-10.27 h -0.01 c -8.1,-1.26 -15.8,-2.46 -22.53,-3.48 -16.54,-2.49 -53.87,-14.25 -87.64,-25.61 1.86,-3.38 3.77,-6.79 5.7,-10.22 16.35,-28.93 35.08,-59.26 56.16,-90.33 2.07,-3.02 4.15,-6.05 6.25,-9.1 z" id="path266"/>
	<path class="st0" d="m 2539.06,565.03 c 33.08,23.62 68.06,49.18 89.58,66.58 h 0.01 c 9.38,7.58 16.21,13.62 19.21,17.26 19.17,23.29 35.92,88.78 20.11,87.9 -15.82,-0.88 -42.87,14.18 -57.36,11.32 -14.48,-2.84 -62.79,-31.28 -62.79,-31.28 l -13.05,-9.1 -76.69,-53.45 c 1.28,-1.62 2.59,-3.26 3.92,-4.91 19.09,-23.66 42.13,-49.35 68.76,-76.07 2.72,-2.74 5.49,-5.49 8.3,-8.25 z" id="path268"/>
	<path class="st0" d="m 2576.13,528.42 c -10.23,27.72 -22.22,59.81 -32.9,87.29 -13.13,33.8 -24.29,60.63 -27.74,63.81 -10.02,9.26 0,5.4 -29.3,16.59 -29.3,11.19 -26.22,-5.02 -26.22,-5.02 2.31,-26.99 -6.17,-45.5 -6.17,-45.5 -7.17,-34.47 -10.04,-66.51 -10.54,-94.47 -0.34,-19.1 0.42,-36.3 1.67,-51.08 2.07,0.04 4.14,0.08 6.22,0.11 3.57,0.05 7.18,0.08 10.81,0.08 23.9,0 61.62,8.66 108.29,25.99 1.94,0.71 3.9,1.45 5.88,2.2 z" id="path270"/>
	<path class="st0" d="m 2451.15,500.15 c -2.12,16.8 -4.72,34.2 -7.89,50.97 -3.83,20.29 -8.49,39.66 -14.13,55.91 -25.45,73.26 -94.09,89.08 -94.09,89.08 4.97,-58.84 0.83,-114.61 -5.52,-159.09 v -0.04 c -1.87,-13.09 -3.92,-25.2 -6,-36.12 2.74,-0.33 5.45,-0.62 8.15,-0.88 38.76,-3.72 74.48,-0.75 113.26,0.06 2.07,0.04 4.14,0.08 6.22,0.11 z" id="path272"/>
	<path class="st0" d="m 2315,626.31 c -28.54,-3.08 -70.39,37.79 -70.39,37.79 -8.11,-13.84 -15.1,-28.82 -21.1,-44.02 -10.93,-27.69 -18.57,-56.14 -23.76,-79.84 1.98,-0.99 3.95,-1.97 5.89,-2.93 14.9,-7.36 29.01,-13.38 42.5,-18.29 27.24,-9.93 51.93,-15.35 75.38,-18.16 2.74,-0.33 5.45,-0.62 8.15,-0.88 -1.27,13.04 -2.09,25.7 -2.15,37 v 0.04 c -0.06,11.43 0.65,21.48 2.44,29.14 10.8,46.27 -16.96,60.15 -16.96,60.15 z" id="path274"/>
	<path class="st0" d="m 2248.14,519.02 c -1.51,16.65 -2.82,34.62 -3.53,52.39 -0.83,20.58 -9.62,36.53 -21.1,48.67 -23.72,25.1 -58.89,33.99 -58.89,33.99 -15.51,-24.94 -22.33,-54.66 -24.69,-82.5 21.12,-11.31 41.26,-22.03 59.82,-31.33 1.98,-0.99 3.95,-1.97 5.89,-2.93 14.9,-7.36 29.01,-13.38 42.5,-18.29 z" id="path276"/>
</g>






</svg>
