<?xml version="1.0" encoding="UTF-8" standalone="no"?>
<!-- Generator: Adobe Illustrator 24.2.3, SVG Export Plug-In . SVG Version: 6.00 Build 0)  -->
<svg xmlns:inkscape="http://www.inkscape.org/namespaces/inkscape" xmlns:sodipodi="http://sodipodi.sourceforge.net/DTD/sodipodi-0.dtd" xmlns:xlink="http://www.w3.org/1999/xlink" xmlns="http://www.w3.org/2000/svg" xmlns:svg="http://www.w3.org/2000/svg" version="1.1" x="0px" y="0px" viewBox="0 0 8503.94 2834.65" style="enable-background:new 0 0 8503.94 2834.65;" xml:space="preserve" id="svg3591" sodipodi:docname="source_v1.svg" inkscape:version="1.2.1 (9c6d41e, 2022-07-14)"><defs id="defs3595"/><sodipodi:namedview id="namedview3593" pagecolor="#ffffff" bordercolor="#000000" borderopacity="0.25" inkscape:showpageshadow="2" inkscape:pageopacity="0.0" inkscape:pagecheckerboard="0" inkscape:deskcolor="#d1d1d1" showgrid="false" inkscape:zoom="0.16651086" inkscape:cx="4092.8261" inkscape:cy="1528.4288" inkscape:window-width="1800" inkscape:window-height="1097" inkscape:window-x="0" inkscape:window-y="44" inkscape:window-maximized="1" inkscape:current-layer="svg3591"/>
<style type="text/css" id="style2">
	.st0{fill:#BAAE96;stroke:#000000;stroke-miterlimit:10;}
	.st1{fill:#BAAE96;stroke:#000000;stroke-width:0.5;stroke-miterlimit:10;}
	.st2{display:none;}
	.st3{display:inline;fill:none;stroke:#000000;stroke-miterlimit:10;}
	.st4{fill:none;stroke:#000000;stroke-miterlimit:10;}
	.st5{display:inline;}
	.st6{fill:#C2B59B;stroke:#000000;stroke-miterlimit:10;}
	.st7{fill:#726658;stroke:#000000;stroke-miterlimit:10;}
	.st8{fill:#C2B59B;stroke:#000000;stroke-width:0.5;stroke-miterlimit:10;}
	.st9{display:none;fill:none;stroke:#000000;stroke-miterlimit:10;}
	.st10{display:inline;fill:none;stroke:#000000;stroke-width:0.25;stroke-miterlimit:10;}
	.st11{fill:none;stroke:#000000;stroke-width:0.5;stroke-miterlimit:10;}
	.st12{display:inline;fill:#9B8579;stroke:#000000;stroke-miterlimit:10;}
	.st13{fill:#9B8579;stroke:#000000;stroke-miterlimit:10;}
	.st14{fill:#C2B59B;stroke:#000000;stroke-width:0.25;stroke-miterlimit:10;}
	.st15{display:none;fill:none;stroke:#000000;stroke-width:0.5;stroke-miterlimit:10;}
	.st16{fill:#939598;stroke:#000000;stroke-miterlimit:10;}
	.st17{fill:#808285;stroke:#000000;stroke-miterlimit:10;}
	.st18{fill:#3A4C42;stroke:#000000;stroke-miterlimit:10;}
	.st19{fill:none;stroke:#000000;stroke-width:2;stroke-miterlimit:10;}
</style>







<g id="Layer_12" style="display:inline" inkscape:label="L2">
	<path class="st0" d="m 3741.73,1412 v 86.17 c 0,0 -25.22,20.64 -33.09,21.95 -7.86,1.31 -11.8,-0.98 -12.12,-22.28 -0.32,-21.3 4.59,-142.53 18.35,-161.2" id="path187"/>
	<path class="st0" d="m 3728.96,1348.44 c 0,0 -51.11,138.27 -95.02,140.23 0,0 -0.33,-165.14 14.09,-195.61" id="path189"/>
	<path class="st0" d="m 3679.48,1321.57 -42.27,110.09 c 0,0 -42.92,48.49 -70.12,51.44 0,0 -19.33,3.6 -19,-9.17 0,0 -1.97,-96.66 33.42,-191.02" id="path191"/>
	<path class="st0" d="m 3487.09,1258.6 -5.17,143.73 c 0,0 19.22,30.79 25.37,58.19 6.15,27.4 28.18,-20.55 44.03,-35.48 15.85,-14.93 49.42,-185.27 49.42,-185.27" id="path193"/>
	<path class="st0" d="m 3097.78,1038.4 21.78,141.06 c 0,0 -32.96,83.25 -45.81,93.43 0,0 -82.31,-98.94 -111.24,-204.78" id="path195"/>
	<path class="st0" d="m 3525.53,1238.85 -32.37,157.48 c 0,0 -59.95,40.14 -91.78,66.63 0,0 -23.83,-72.53 -17.15,-120.11 0,0 29.36,-148.3 35.93,-157.25" id="path197"/>
	<path class="st0" d="m 2946.16,931.33 16.27,159.95 c 0,0 -45.18,56.25 -67.61,91.06 0,0 -44.45,-62.06 -52.33,-109.47 0,0 -16.4,-150.28 -12.81,-160.8" id="path199"/>
	<path class="st0" d="m 3445.33,1176.91 c 0,0 -20.62,62.14 -22.88,104.62 0,0 -55.49,99.28 -102.63,103.16 0,0 -50.85,-156.05 -14.31,-232.69" id="path201"/>
	<path class="st0" d="m 3313.82,1152.82 c 0,0 -18.19,82.69 -19.42,120.93 0,0 -40.39,20.21 -55.98,41.87 0,0 -16.38,19.11 -24.03,-2.62 -8.21,-23.33 -43.76,-75.1 -13.07,-184.82" id="path203"/>
	<path class="st0" d="m 3074.18,1075.24 50.62,134.62 c 0,0 29.6,21 45.83,43.92 16.23,22.92 18.08,-29.82 26.95,-49.71 8.87,-19.88 -25.8,-190 -25.8,-190" id="path205"/>
	<path class="st0" d="m 2971.81,945.66 35.14,121.46 c 0,0 47.95,51.58 63.62,63.87 0,0 46.73,-57.72 49.42,-85.25 0,0 -39.58,-53.98 -41.34,-106.08" id="path207"/>
	<path class="st0" d="m 2906.68,980.31 c 0,0 29.95,138.5 31.55,140.57 1.6,2.06 23.15,29.91 35.41,32.2 0,0 16.14,12.39 16.59,34.96 0,0 26.38,-15.84 39.28,-38.92 0,0 15.31,-41.97 16.42,-50.69 0,0 -26.43,-41.75 -28.13,-153.07" id="path209"/>
	<path class="st0" d="m 2790.03,879.14 70.18,121.88 c 0,0 38.7,30.64 80.18,45.25 0,0 37.1,-46.23 28.03,-110.91 0,0 -61.1,-116.48 -85.06,-132.61" id="path211"/>
	<path class="st0" d="m 2692.47,919.51 c 0,0 47.95,107.45 76.01,128.17 28.06,20.72 58.25,43.23 100.68,48.52 0,0 19.73,-28.38 12.88,-78.63 L 2758.87,830.75" id="path213"/>
	<path class="st0" d="m 2576.01,801.78 c 0,0 70.97,90.19 105.81,107.85 34.84,17.66 61.81,20.36 64.34,20.91 2.53,0.55 4.19,-19.23 27,-16.91 0,0 21.5,-15.98 3.5,-91.45 L 2651.08,646.96" id="path215"/>
	<path class="st0" d="m 2472.21,793.74 c 0,0 163.97,130.89 212.35,145.04 0,0 5.29,-64.46 -30.28,-120.39 -35.57,-55.93 -125.05,-137.71 -125.05,-137.71" id="path217"/>
	<path class="st0" d="m 2442.31,813.09 c 0,0 45.66,114.93 85.81,146.91 40.15,31.98 49.84,27.35 77.31,51.24 0,0 19.95,-12.72 1.84,-84.32 -18.11,-71.6 -90.19,-187.01 -90.19,-187.01" id="path219"/>
	<path class="st0" d="m 2486.12,636.42 c 0,0 -37.8,49.71 -51.78,118.06 0,0 -5.7,63.69 0,92.69 5.7,29 0.52,23.82 18.64,18.64 18.12,-5.18 59.55,-26.93 68.87,-52.3 9.32,-25.37 97.35,-183.31 97.35,-183.31" id="path221"/>
	<path class="st0" d="m 2377.9,630.2 c 0,0 -24.85,53.33 -24.85,90.62 0,37.28 19.16,61.1 20.19,79.74 0,0 76.64,-46.6 80.78,-57.48 4.14,-10.87 57.99,-145.51 57.99,-145.51" id="path223"/>
	<path class="st0" d="m 2308.51,581.01 c 0,0 -32.1,84.92 -28.48,125.31 3.62,40.39 22.27,76.76 25.89,85.76 0,0 42.98,-16.37 68.87,-68.67 l 44.53,-131.52" id="path225"/>
	<path class="st0" d="m 2223.07,592.92 c 0,0 -15.02,47.12 -16.57,57.48 -1.55,10.36 -1.55,72.02 4.66,89.86 0,0 32.1,-3.39 52.3,-21.51 0,0 39.21,-57.48 55.59,-113.92" id="path227"/>
	<path class="st0" d="m 2152.37,630.2 c 0,0 5.69,66.1 -12.42,94.57 0,0 25.88,17.08 42.96,-15.53 17.08,-32.61 49.68,-77.11 47.1,-104.03" id="path229"/>
	<path class="st0" d="m 2099.58,589.69 c 0,0 -60.55,62.62 -45.03,157.33 0,0 124.21,-78.54 154.23,-149.44" id="path231"/>
	<path class="st0" d="m 2643.22,771.02 c 0,0 163.97,130.89 212.35,145.04 0,0 5.29,-64.46 -30.28,-120.39 -35.57,-55.93 -125.05,-137.71 -125.05,-137.71" id="path233"/>
	<path class="st0" d="m 2880.39,874.95 74.55,122.99 c 0,0 32.96,15.19 53.14,34.72 20.18,19.53 12.28,-32.65 17.34,-53.82 5.06,-21.18 -60.36,-182 -60.36,-182" id="path235"/>
</g>







</svg>
