<?xml version="1.0" encoding="UTF-8" standalone="no"?>
<!-- Generator: Adobe Illustrator 24.2.3, SVG Export Plug-In . SVG Version: 6.00 Build 0)  -->
<svg xmlns:inkscape="http://www.inkscape.org/namespaces/inkscape" xmlns:sodipodi="http://sodipodi.sourceforge.net/DTD/sodipodi-0.dtd" xmlns:xlink="http://www.w3.org/1999/xlink" xmlns="http://www.w3.org/2000/svg" xmlns:svg="http://www.w3.org/2000/svg" version="1.1" x="0px" y="0px" viewBox="0 0 8503.94 2834.65" style="enable-background:new 0 0 8503.94 2834.65;" xml:space="preserve" id="svg3591" sodipodi:docname="source_v1.svg" inkscape:version="1.2.1 (9c6d41e, 2022-07-14)"><defs id="defs3595"/><sodipodi:namedview id="namedview3593" pagecolor="#ffffff" bordercolor="#000000" borderopacity="0.25" inkscape:showpageshadow="2" inkscape:pageopacity="0.0" inkscape:pagecheckerboard="0" inkscape:deskcolor="#d1d1d1" showgrid="false" inkscape:zoom="0.16651086" inkscape:cx="4092.8261" inkscape:cy="1528.4288" inkscape:window-width="1800" inkscape:window-height="1097" inkscape:window-x="0" inkscape:window-y="44" inkscape:window-maximized="1" inkscape:current-layer="svg3591"/>
<style type="text/css" id="style2">
	.st0{fill:#BAAE96;stroke:#000000;stroke-miterlimit:10;}
	.st1{fill:#BAAE96;stroke:#000000;stroke-width:0.5;stroke-miterlimit:10;}
	.st2{display:none;}
	.st3{display:inline;fill:none;stroke:#000000;stroke-miterlimit:10;}
	.st4{fill:none;stroke:#000000;stroke-miterlimit:10;}
	.st5{display:inline;}
	.st6{fill:#C2B59B;stroke:#000000;stroke-miterlimit:10;}
	.st7{fill:#726658;stroke:#000000;stroke-miterlimit:10;}
	.st8{fill:#C2B59B;stroke:#000000;stroke-width:0.5;stroke-miterlimit:10;}
	.st9{display:none;fill:none;stroke:#000000;stroke-miterlimit:10;}
	.st10{display:inline;fill:none;stroke:#000000;stroke-width:0.25;stroke-miterlimit:10;}
	.st11{fill:none;stroke:#000000;stroke-width:0.5;stroke-miterlimit:10;}
	.st12{display:inline;fill:#9B8579;stroke:#000000;stroke-miterlimit:10;}
	.st13{fill:#9B8579;stroke:#000000;stroke-miterlimit:10;}
	.st14{fill:#C2B59B;stroke:#000000;stroke-width:0.25;stroke-miterlimit:10;}
	.st15{display:none;fill:none;stroke:#000000;stroke-width:0.5;stroke-miterlimit:10;}
	.st16{fill:#939598;stroke:#000000;stroke-miterlimit:10;}
	.st17{fill:#808285;stroke:#000000;stroke-miterlimit:10;}
	.st18{fill:#3A4C42;stroke:#000000;stroke-miterlimit:10;}
	.st19{fill:none;stroke:#000000;stroke-width:2;stroke-miterlimit:10;}
</style>






<g id="Layer_9" style="display:inline" inkscape:label="L3">
	<path class="st0" d="m 3741.73,1484.23 v 132.18 l -54.18,54.62 c 0,0 12.39,-198.27 17.9,-222.6" id="path154"/>
	<path class="st0" d="m 3721.05,1441.08 -18.36,118.87 c 0,0 -15.15,55.53 -71.14,87.2 0,0 -13.31,-172.11 0,-220.3" id="path156"/>
	<path class="st0" d="m 3674.7,1436.49 -39.93,123.23 -67.47,62.65 c 0,0 -17.9,11.47 -19.28,-9.64 -1.38,-21.11 8.26,-131.72 38.09,-211.12" id="path158"/>
	<path class="st0" d="m 3598.51,1426.85 -43.6,132.87 c 0,0 -23.87,44.29 -55.53,53.01 0,0 -19.74,-5.05 -16.98,-72.06 2.75,-67.01 42.68,-168.9 42.68,-168.9" id="path160"/>
	<path class="st0" d="m 3547.9,1401.61 -48.52,117.49 c 0,0 -52.32,58.75 -63.34,63.34 -11.02,4.59 -13.31,-1.38 -13.31,-16.98 0,-15.6 17.9,-153.29 34.88,-199.19" id="path162"/>
	<path class="st0" d="m 3485.61,1380.74 c 0,0 -33.5,182.43 -134.48,203.54 0,0 15.15,-45.54 14.23,-70.73 -0.92,-25.19 6.43,-120.66 35.34,-162.88" id="path164"/>
	<path class="st0" d="m 3402.82,1350.24 c 0,0 -28.08,91.87 -38.77,155.86 0,0 -8.64,50.65 -63.24,46.36 0,0 18.52,-49.9 16.19,-84.85 -2.33,-34.95 -3.33,-122.64 17.87,-155.77" id="path166"/>
	<path class="st0" d="m 3347.31,1289.96 -15.68,144.33 c 0,0 -58.53,70.53 -71.03,98.06 0,0 -23.33,-103.49 -22.6,-138.62 0.73,-35.13 26.46,-133.92 26.46,-133.92" id="path168"/>
	<path class="st0" d="m 3261.1,1264.83 5.8,145.85 c 0,0 -23.21,37.29 -29.92,89.69 0,0 -99.05,-176.25 -97.74,-222.57" id="path170"/>
	<path class="st0" d="m 3212.42,1225.68 -8.4,169.97 c 0,0 -28.27,64.97 -41.69,85.26 0,0 -31.37,-56.3 -45.6,-109.36 l -6.46,-161.64" id="path172"/>
	<path class="st0" d="m 3147.78,1204.37 -11.51,131.64 c 0,0 -16.16,63.64 -50.56,88.19 0,0 -10.66,-58.44 -19.71,-85.37 0,0 -28.88,-104.35 -12.03,-182.7" id="path174"/>
	<path class="st0" d="m 3087.34,1202.3 -19.1,134.4 c 0,0 -27.6,8.47 -33.72,23.24 0,0 -11.82,-52.99 -33.58,-88.14 0,0 0,-62.91 7.99,-85.44" id="path176"/>
	<path class="st0" d="m 3028.56,1159.65 c 0,0 8.42,151.4 -24.72,153.41 0,0 -24.7,-24.27 -34.4,-73.94 -9.7,-49.67 -4.64,-84.43 -4.64,-84.43" id="path178"/>
	<path class="st0" d="m 2988.52,1140.11 0.61,102.17 c 0,0 -3.86,27.7 -8.7,37.07 0,0 -22.2,14.4 -29.62,17.69 0,0 -20.3,-36.83 -22.82,-52.65 l -3.28,-120.48" id="path180"/>
	<path class="st0" d="m 2939.12,1122.07 c 0,0 -10.32,107.91 -28.73,125.66 -18.41,17.75 -19.17,10.68 -21.76,10.63 0,0 2.27,-58.58 -20.64,-136.8 l 7.55,-32.25" id="path182"/>
	<path class="st0" d="m 2865.3,1067.36 c 0,0 6.96,86.75 3.04,101.27 -3.92,14.51 -11.47,25.79 -22.18,26.81 0,0 -30.53,-34.36 -34.02,-118.79" id="path184"/>
</g>








</svg>
