<?xml version="1.0" encoding="UTF-8" standalone="no"?>
<!-- Generator: Adobe Illustrator 24.2.3, SVG Export Plug-In . SVG Version: 6.00 Build 0)  -->
<svg xmlns:inkscape="http://www.inkscape.org/namespaces/inkscape" xmlns:sodipodi="http://sodipodi.sourceforge.net/DTD/sodipodi-0.dtd" xmlns:xlink="http://www.w3.org/1999/xlink" xmlns="http://www.w3.org/2000/svg" xmlns:svg="http://www.w3.org/2000/svg" version="1.1" x="0px" y="0px" viewBox="0 0 8503.94 2834.65" style="enable-background:new 0 0 8503.94 2834.65;" xml:space="preserve" id="svg3591" sodipodi:docname="source_v1.svg" inkscape:version="1.2.1 (9c6d41e, 2022-07-14)"><defs id="defs3595"/><sodipodi:namedview id="namedview3593" pagecolor="#ffffff" bordercolor="#000000" borderopacity="0.25" inkscape:showpageshadow="2" inkscape:pageopacity="0.0" inkscape:pagecheckerboard="0" inkscape:deskcolor="#d1d1d1" showgrid="false" inkscape:zoom="0.16651086" inkscape:cx="4092.8261" inkscape:cy="1528.4288" inkscape:window-width="1800" inkscape:window-height="1097" inkscape:window-x="0" inkscape:window-y="44" inkscape:window-maximized="1" inkscape:current-layer="svg3591"/>
<style type="text/css" id="style2">
	.st0{fill:#BAAE96;stroke:#000000;stroke-miterlimit:10;}
	.st1{fill:#BAAE96;stroke:#000000;stroke-width:0.5;stroke-miterlimit:10;}
	.st2{display:none;}
	.st3{display:inline;fill:none;stroke:#000000;stroke-miterlimit:10;}
	.st4{fill:none;stroke:#000000;stroke-miterlimit:10;}
	.st5{display:inline;}
	.st6{fill:#C2B59B;stroke:#000000;stroke-miterlimit:10;}
	.st7{fill:#726658;stroke:#000000;stroke-miterlimit:10;}
	.st8{fill:#C2B59B;stroke:#000000;stroke-width:0.5;stroke-miterlimit:10;}
	.st9{display:none;fill:none;stroke:#000000;stroke-miterlimit:10;}
	.st10{display:inline;fill:none;stroke:#000000;stroke-width:0.25;stroke-miterlimit:10;}
	.st11{fill:none;stroke:#000000;stroke-width:0.5;stroke-miterlimit:10;}
	.st12{display:inline;fill:#9B8579;stroke:#000000;stroke-miterlimit:10;}
	.st13{fill:#9B8579;stroke:#000000;stroke-miterlimit:10;}
	.st14{fill:#C2B59B;stroke:#000000;stroke-width:0.25;stroke-miterlimit:10;}
	.st15{display:none;fill:none;stroke:#000000;stroke-width:0.5;stroke-miterlimit:10;}
	.st16{fill:#939598;stroke:#000000;stroke-miterlimit:10;}
	.st17{fill:#808285;stroke:#000000;stroke-miterlimit:10;}
	.st18{fill:#3A4C42;stroke:#000000;stroke-miterlimit:10;}
	.st19{fill:none;stroke:#000000;stroke-width:2;stroke-miterlimit:10;}
</style>





<g id="Layer_10" style="display:inline" inkscape:label="L4">
	<path class="st0" d="m 3647.96,1576.57 c 0,0 -10.08,111.74 -2.59,153.56 8.1,45.24 34.99,24.62 34.99,24.62 l 61.38,-65.44 v -101.08" id="path117"/>
	<path class="st0" d="m 3614.26,1553.25 c -36.28,57.67 -40.82,136.71 -36.93,145.14 3.89,8.42 18.14,71.92 18.14,71.92 15.55,-23.33 48.72,-48.53 48.72,-48.53 l 32.28,-154.27" id="path119"/>
	<path class="st0" d="m 3516.43,1546.12 c -38.23,141.25 -7.78,221.59 -7.78,221.59 25.92,1.94 29.16,-11.66 42.76,-29.16 13.61,-17.49 51.19,-23.33 51.19,-23.33 l 22.68,-175.59" id="path121"/>
	<path class="st0" d="m 3531.98,1579.81 -23.97,99.78 c 0,0 -32.4,34.99 -38.88,47.95 0,0 -23.97,-2.76 -45.36,21.95 0,0 -32.4,-168.38 7.78,-259.74" id="path123"/>
	<path class="st0" d="m 3469.78,1527.33 -40.82,129.23 c 0,0 -31.1,21.74 -45.36,43.12 0,0 -14.9,9.07 -27.21,0 0,0 -22.68,-119.87 34.99,-248.81" id="path125"/>
	<path class="st0" d="m 3406.93,1483.92 -46,158.1 c 0,0 -36.28,11.66 -57.67,32.4 -21.38,20.73 -25.27,-3.89 -25.92,-12.63 -0.65,-8.74 -17.49,-92.98 35.64,-240.06" id="path127"/>
	<path class="st0" d="m 3328.34,1472.01 -27.35,130.47 c 0,0 -31.78,12.9 -60.86,42.53 0,0 -19.94,19.2 -24.41,-19.55 -4.47,-38.75 -23.46,-136.71 22.23,-225.18" id="path129"/>
	<path class="st0" d="m 3269.99,1414.26 -38.38,163.94 c 0,0 -50.08,10.75 -66.05,24.73 -15.97,13.98 -21.22,10.29 -20.62,-20.07 0.6,-30.36 -7.54,-178.26 27.81,-231.81" id="path131"/>
	<path class="st0" d="m 3212.52,1390.1 -48.88,141.67 c 0,0 -43.59,51.59 -57.87,52.56 -14.28,0.97 -25.67,-0.49 -21.39,-51.7 4.28,-51.21 57.92,-204.14 57.92,-204.14" id="path133"/>
	<path class="st0" d="M 3152.93,1343.76 3109.55,1492 c 0,0 -51.72,36.35 -69.46,47.03 -17.74,10.68 -20.49,-13.87 -19.85,-31.15 0.64,-17.28 56.38,-207.49 56.38,-207.49" id="path135"/>
	<path class="st0" d="m 3096.82,1301.94 -50.69,156.15 -47.38,43.11 c 0,0 -12.9,9.88 -18.38,-1.44 -5.48,-11.32 -23.29,-7.75 -23.29,-7.75 0,0 -10.32,4.14 -5.91,-10.34 4.41,-14.48 8.73,-158.42 42.49,-240.24" id="path137"/>
	<path class="st0" d="m 3012.44,1249.77 -23.16,170.24 c 0,0 -43.46,71.6 -67.1,58.07 -23.64,-13.53 -31.97,-46.16 -31.56,-66.44 0.41,-20.28 7.11,-193.46 7.11,-193.46" id="path139"/>
	<path class="st0" d="m 2965.6,1197.62 -42.92,151.19 c 0,0 -39.33,25.09 -48.28,47.17 0,0 -27.74,-48.88 -33.49,-72.42 0,0 0.79,-99.49 47.93,-202.49" id="path141"/>
	<path class="st0" d="m 2917.04,1144.44 -53.29,131.76 c 0,0 -17.04,25.32 -51.59,34.09 0,0 -36.26,-49.97 -37.63,-89.14 0,0 3.51,-125.42 47.45,-167.96" id="path143"/>
	<path class="st0" d="m 2803.71,1040.26 -3.67,130.12 c 0,0 -14.02,33.78 -35.72,56.98 0,0 -40.9,-46.12 -53.94,-79.66 l -11.95,-120.13" id="path145"/>
	<path class="st0" d="m 2713.36,1044.11 1.21,124.94 c 0,0 -11.83,36.55 -33.6,73.99 0,0 -26.15,-41.37 -53.23,-74.46 0,0 -21.06,-56.93 -19.23,-150.7" id="path147"/>
	<path class="st0" d="m 2698.42,894.89 54.93,141.21 c 0,0 -3.64,25.13 -25.94,45.08 0,0 -24.23,-0.9 -53.6,-39.55 l -42.3,-115.71" id="path149"/>
	<path class="st0" d="m 2675.95,912.4 -9.61,125.11 c 0,0 -21.5,17.69 -57.25,18.25 0,0 -24.93,-40.11 -25.3,-70.92 -0.38,-30.81 2.25,-118.37 2.25,-118.37" id="path151"/>
</g>









</svg>
