<?xml version="1.0" encoding="UTF-8" standalone="no"?>
<!-- Generator: Adobe Illustrator 24.2.3, SVG Export Plug-In . SVG Version: 6.00 Build 0)  -->
<svg xmlns:inkscape="http://www.inkscape.org/namespaces/inkscape" xmlns:sodipodi="http://sodipodi.sourceforge.net/DTD/sodipodi-0.dtd" xmlns:xlink="http://www.w3.org/1999/xlink" xmlns="http://www.w3.org/2000/svg" xmlns:svg="http://www.w3.org/2000/svg" version="1.1" x="0px" y="0px" viewBox="0 0 8503.94 2834.65" style="enable-background:new 0 0 8503.94 2834.65;" xml:space="preserve" id="svg3591" sodipodi:docname="source_v1.svg" inkscape:version="1.2.1 (9c6d41e, 2022-07-14)"><defs id="defs3595"/><sodipodi:namedview id="namedview3593" pagecolor="#ffffff" bordercolor="#000000" borderopacity="0.25" inkscape:showpageshadow="2" inkscape:pageopacity="0.0" inkscape:pagecheckerboard="0" inkscape:deskcolor="#d1d1d1" showgrid="false" inkscape:zoom="0.16651086" inkscape:cx="4092.8261" inkscape:cy="1528.4288" inkscape:window-width="1800" inkscape:window-height="1097" inkscape:window-x="0" inkscape:window-y="44" inkscape:window-maximized="1" inkscape:current-layer="svg3591"/>
<style type="text/css" id="style2">
	.st0{fill:#BAAE96;stroke:#000000;stroke-miterlimit:10;}
	.st1{fill:#BAAE96;stroke:#000000;stroke-width:0.5;stroke-miterlimit:10;}
	.st2{display:none;}
	.st3{display:inline;fill:none;stroke:#000000;stroke-miterlimit:10;}
	.st4{fill:none;stroke:#000000;stroke-miterlimit:10;}
	.st5{display:inline;}
	.st6{fill:#C2B59B;stroke:#000000;stroke-miterlimit:10;}
	.st7{fill:#726658;stroke:#000000;stroke-miterlimit:10;}
	.st8{fill:#C2B59B;stroke:#000000;stroke-width:0.5;stroke-miterlimit:10;}
	.st9{display:none;fill:none;stroke:#000000;stroke-miterlimit:10;}
	.st10{display:inline;fill:none;stroke:#000000;stroke-width:0.25;stroke-miterlimit:10;}
	.st11{fill:none;stroke:#000000;stroke-width:0.5;stroke-miterlimit:10;}
	.st12{display:inline;fill:#9B8579;stroke:#000000;stroke-miterlimit:10;}
	.st13{fill:#9B8579;stroke:#000000;stroke-miterlimit:10;}
	.st14{fill:#C2B59B;stroke:#000000;stroke-width:0.25;stroke-miterlimit:10;}
	.st15{display:none;fill:none;stroke:#000000;stroke-width:0.5;stroke-miterlimit:10;}
	.st16{fill:#939598;stroke:#000000;stroke-miterlimit:10;}
	.st17{fill:#808285;stroke:#000000;stroke-miterlimit:10;}
	.st18{fill:#3A4C42;stroke:#000000;stroke-miterlimit:10;}
	.st19{fill:none;stroke:#000000;stroke-width:2;stroke-miterlimit:10;}
</style>










<g id="Mandalas" style="display:inline" inkscape:label="MandelaL">
	
	
	
	<g id="g1310" style="display:inline">
		<path class="st4" d="m 2076.52,540.7 c -0.03,0.04 -0.09,0.11 -0.19,0.23 -6.29,-5.64 -12.31,-11.65 -18.04,-18.05 0.19,-0.14 0.28,-0.22 0.28,-0.22 5.63,6.34 11.63,12.36 17.95,18.04 z" id="path1068"/>
		<path class="st4" d="m 2092.16,553.39 c 6.76,5.1 13.8,9.83 21.12,14.18 -0.02,0.04 -0.07,0.13 -0.14,0.27 -7.3,-4.3 -14.39,-9.02 -21.23,-14.15 0.16,-0.2 0.25,-0.3 0.25,-0.3 z" id="path1070"/>
		<path class="st4" d="m 2131.09,576.96 c 7.62,3.68 15.46,6.95 23.48,9.79 -0.01,0.04 -0.04,0.12 -0.07,0.25 -8.02,-2.8 -15.89,-6.04 -23.59,-9.72 0.11,-0.21 0.18,-0.32 0.18,-0.32 z" id="path1072"/>
		<path class="st4" d="m 2173.87,592.49 c 8.2,2.13 16.52,3.79 24.94,5.01 0,0.04 -0.01,0.11 -0.02,0.23 -8.42,-1.19 -16.78,-2.84 -25.02,-4.94 0.06,-0.2 0.1,-0.3 0.1,-0.3 z" id="path1074"/>
		<path class="st4" d="m 2244.29,599.42 c 0.01,0.04 0.02,0.12 0.03,0.25 -0.13,0.01 -0.27,0.02 -0.4,0.03 -8.38,0.45 -16.76,0.45 -25.11,-0.01 0.03,-0.22 0.05,-0.33 0.05,-0.33 8.46,0.49 16.94,0.51 25.43,0.06 z" id="path1076"/>
		<path class="st4" d="m 2289.29,592.42 c 0.01,0.04 0.04,0.12 0.08,0.25 -8.28,2.14 -16.63,3.8 -25.01,5 -0.02,-0.22 -0.03,-0.35 -0.03,-0.35 8.39,-1.16 16.71,-2.8 24.96,-4.9 z" id="path1078"/>
		<path class="st4" d="m 2332.05,576.78 c 0.02,0.03 0.05,0.08 0.09,0.17 -7.73,3.75 -15.57,7.01 -23.53,9.83 -0.06,-0.21 -0.08,-0.32 -0.08,-0.32 8,-2.77 15.84,-6 23.52,-9.68 z" id="path1080"/>
		<path class="st4" d="m 2370.93,553.11 c 0.02,0.02 0.05,0.06 0.08,0.1 -3.49,2.63 -7.09,5.19 -10.78,7.65 -3.42,2.29 -6.87,4.47 -10.37,6.55 -0.07,-0.14 -0.11,-0.22 -0.11,-0.22 7.3,-4.28 14.37,-8.99 21.18,-14.08 z" id="path1082"/>
		<path class="st4" d="m 2404.46,522.3 c 0.02,0.02 0.06,0.05 0.11,0.09 -5.62,6.28 -11.62,12.32 -18.01,18.04 -0.08,-0.11 -0.13,-0.18 -0.13,-0.18 6.32,-5.64 12.33,-11.62 18.03,-17.95 z" id="path1084"/>
		<path class="st4" d="m 2431.32,485.54 c 0.02,0.01 0.05,0.03 0.08,0.05 -4.28,7.29 -8.97,14.37 -14.09,21.2 -0.1,-0.08 -0.16,-0.13 -0.16,-0.13 5.1,-6.76 9.83,-13.81 14.17,-21.12 z" id="path1086"/>
		<path class="st4" d="m 2450.5,444.25 c 0,0 0,0 0,0 -2.77,8.01 -5.99,15.86 -9.66,23.54 -0.08,-0.04 -0.12,-0.07 -0.12,-0.07 3.68,-7.62 6.95,-15.45 9.78,-23.47 z" id="path1088"/>
		<path class="st6" d="m 2083.98,547.48 c -0.01,0.01 -0.02,0.03 -0.02,0.04 -0.08,0.09 -0.18,0.21 -0.28,0.34 -0.06,0.07 -0.1,0.13 -0.17,0.21 -3.71,4.34 -21.71,25.29 -39.39,42.94 -17.78,17.75 -35.37,26.09 -53.46,35.04 -10.73,5.32 -21.64,10.84 -32.87,18.68 -7.21,5.04 -14.56,11.03 -22.08,18.53 7.52,-7.5 13.52,-14.83 18.57,-22.04 7.85,-11.19 13.39,-22.07 18.72,-32.78 9,-18.08 17.37,-35.68 35.18,-53.46 4.94,-4.93 37.37,-33.31 47.3,-35.31 0.93,1.08 1.86,2.14 2.81,3.2 -3.49,2.77 -38.93,31.44 -37.62,55.57 24.19,1.37 52.99,-34.15 55.66,-37.53 2.5,2.26 5.06,4.46 7.65,6.57 z" id="path1090"/>
		<path class="st4" d="m 2084.19,547.25 c 0,0 -0.07,0.07 -0.21,0.23" id="path1092"/>
		<path d="m 2076.52,540.7 c -0.03,0.04 -0.09,0.11 -0.19,0.23 -2.67,3.37 -31.47,38.89 -55.66,37.53 -1.31,-24.13 34.13,-52.8 37.62,-55.57 0.19,-0.14 0.28,-0.22 0.28,-0.22 5.64,6.33 11.63,12.35 17.95,18.03 z" id="path1094"/>
		<path class="st4" d="m 1999.3,714.91 c -0.07,0.1 -0.15,0.22 -0.22,0.33 v 0.01" id="path1096"/>
		<path class="st4" d="m 2084.23,547.15 c 0,0 -0.09,0.11 -0.25,0.33" id="path1098"/>
		<path class="st4" d="m 1999.3,714.91 c -0.07,0.1 -0.15,0.22 -0.22,0.33" id="path1100"/>
		<path class="st4" d="m 2122.07,572.5 c 0,0 -0.05,0.09 -0.14,0.26" id="path1102"/>
		<path d="m 2113.28,567.57 c -0.02,0.04 -0.07,0.13 -0.14,0.27 -1.97,3.84 -23.27,44.28 -47.27,47.66 -5.98,-23.36 22.99,-58.23 26.04,-61.81 0.17,-0.2 0.25,-0.3 0.25,-0.3 6.76,5.11 13.8,9.83 21.12,14.18 z" id="path1104"/>
		<path class="st4" d="m 2122.1,572.38 c 0,0 -0.07,0.12 -0.19,0.37" id="path1106"/>
		<path class="st4" d="m 2164.16,589.86 c 0,0 -0.03,0.08 -0.07,0.24" id="path1108"/>
		<path d="m 2154.57,586.75 c -0.01,0.04 -0.04,0.12 -0.07,0.25 -1.12,3.92 -14.13,47.99 -37.07,56 -10.43,-21.78 11.28,-61.76 13.48,-65.72 0.12,-0.21 0.19,-0.32 0.19,-0.32 7.61,3.68 15.45,6.95 23.47,9.79 z" id="path1110"/>
		<path class="st4" d="m 2164.16,589.76 c 0,0 -0.04,0.11 -0.1,0.35" id="path1112"/>
		<path class="st4" d="m 2208.82,598.68 c 0,0 -0.01,0.08 -0.04,0.25" id="path1114"/>
		<path d="m 2198.81,597.5 c 0,0.04 -0.01,0.11 -0.02,0.23 -0.31,3.87 -4.45,49.81 -25.44,62.19 -14.53,-19.4 -0.9,-63.07 0.41,-67.13 0.07,-0.21 0.1,-0.31 0.1,-0.31 8.22,2.14 16.53,3.8 24.95,5.02 z" id="path1116"/>
		<path class="st4" d="m 2231.39,785.65 c 0,-0.06 0,-0.12 0,-0.18" id="path1118"/>
		<path class="st4" d="m 2208.8,598.58 c 0,0 -0.01,0.12 -0.03,0.36" id="path1120"/>
		<path class="st4" d="m 2231.39,785.65 c 0,-0.06 0,-0.12 0,-0.18" id="path1122"/>
		<path class="st4" d="m 2254.37,598.9 c -0.01,-0.18 -0.02,-0.27 -0.02,-0.27" id="path1124"/>
		<path d="m 2231.51,665.6 c -18.03,-16.17 -13.2,-61.63 -12.7,-65.91 0.03,-0.22 0.05,-0.33 0.05,-0.33 8.46,0.49 16.94,0.51 25.44,0.06 0.01,0.04 0.02,0.12 0.03,0.25 0.46,3.97 5.32,49.73 -12.82,65.93 z" id="path1126"/>
		<path class="st4" d="m 2254.35,598.9 c -0.02,-0.24 -0.04,-0.37 -0.04,-0.37" id="path1128"/>
		<path class="st4" d="m 2299.07,589.93 c -0.05,-0.17 -0.07,-0.25 -0.07,-0.25" id="path1130"/>
		<path d="m 2289.66,659.84 c -20.81,-12.33 -24.95,-57.76 -25.3,-62.16 -0.02,-0.22 -0.03,-0.35 -0.03,-0.35 8.39,-1.17 16.72,-2.81 24.96,-4.91 0.01,0.04 0.04,0.12 0.08,0.25 1.26,3.9 14.9,47.76 0.29,67.17 z" id="path1132"/>
		<path class="st4" d="m 2299.05,589.94 c -0.07,-0.23 -0.11,-0.35 -0.11,-0.35" id="path1134"/>
		<path class="st4" d="m 2341.11,572.36 c -0.06,-0.1 -0.08,-0.16 -0.08,-0.16" id="path1136"/>
		<path d="m 2345.56,642.83 c -22.84,-8.04 -35.77,-51.89 -36.95,-56.04 -0.06,-0.21 -0.08,-0.32 -0.08,-0.32 8,-2.78 15.84,-6.01 23.52,-9.68 0.02,0.03 0.05,0.08 0.09,0.17 1.77,3.15 24.03,43.85 13.42,65.87 z" id="path1138"/>
		<path class="st4" d="m 2341.09,572.37 c -0.08,-0.16 -0.13,-0.24 -0.13,-0.24" id="path1140"/>
		<path class="st4" d="m 2378.94,546.97 c -0.06,-0.07 -0.08,-0.1 -0.08,-0.1" id="path1142"/>
		<path d="m 2397.08,615.25 c -24.15,-3.46 -45.51,-44.5 -47.21,-47.84 -0.07,-0.14 -0.11,-0.22 -0.11,-0.22 7.3,-4.29 14.37,-8.99 21.17,-14.09 0.02,0.02 0.05,0.06 0.08,0.1 2.05,2.39 32.21,38.24 26.07,62.05 z" id="path1144"/>
		<path class="st4" d="m 2378.91,546.99 c -0.09,-0.12 -0.15,-0.19 -0.15,-0.19" id="path1146"/>
		<path class="st4" d="m 2411.12,514.72 c -0.07,-0.07 -0.11,-0.09 -0.11,-0.09" id="path1148"/>
		<path d="m 2442.22,578.14 c -24.39,1.32 -53.4,-34.86 -55.66,-37.71 -0.08,-0.11 -0.13,-0.18 -0.13,-0.18 6.32,-5.64 12.33,-11.62 18.03,-17.95 0.02,0.02 0.06,0.05 0.11,0.09 2.47,1.94 39.03,31.22 37.65,55.75 z" id="path1150"/>
		<path class="st4" d="m 2411.09,514.75 c -0.12,-0.11 -0.19,-0.16 -0.19,-0.16" id="path1152"/>
		<path class="st6" d="m 2579,599.74 c -8.89,-5.95 -17.31,-10.43 -25.41,-13.98 -12.67,-5.57 -24.56,-8.89 -36.24,-12.06 -19.28,-5.24 -37.99,-10.07 -58.67,-23.92 -20.62,-13.8 -42.18,-30.75 -46.84,-34.45 -0.11,-0.09 -0.22,-0.17 -0.3,-0.24 -0.19,-0.18 -0.33,-0.3 -0.41,-0.37 2.14,-2.6 4.2,-5.25 6.19,-7.93 -0.1,-0.08 -0.16,-0.13 -0.16,-0.13 5.1,-6.76 9.83,-13.8 14.17,-21.12 0.02,0.01 0.05,0.03 0.08,0.05 1.7,-2.89 3.34,-5.83 4.91,-8.78 0,0 0.01,-0.01 0.01,-0.02 0.09,0.06 0.27,0.15 0.53,0.3 0.07,0.04 0.16,0.08 0.25,0.13 0.08,0.04 0.17,0.08 0.25,0.13 5.36,3.01 29.1,16.42 49.62,30.17 20.67,13.84 32.26,29.28 44.44,45.1 7.39,9.61 14.99,19.36 24.98,28.96 6.37,6.13 13.72,12.21 22.6,18.16 z" id="path1154"/>
		<path class="st4" d="m 2436.32,476.78 c -0.05,-0.03 -0.07,-0.05 -0.07,-0.05" id="path1156"/>
		<path d="m 2479.26,532.95 c -23.7,6.06 -59.28,-23.87 -61.95,-26.16 -0.1,-0.08 -0.16,-0.13 -0.16,-0.13 5.1,-6.76 9.83,-13.8 14.17,-21.12 0.02,0.01 0.05,0.03 0.08,0.05 2.47,1.24 44.41,22.91 47.86,47.36 z" id="path1158"/>
		<path class="st4" d="m 2436.85,477.08 c -0.24,-0.12 -0.42,-0.22 -0.54,-0.28 -0.11,-0.06 -0.17,-0.08 -0.17,-0.08" id="path1160"/>
		<path class="st6" d="m 2617.62,527.44 c -9.86,-4.09 -18.99,-6.85 -27.63,-8.75 -13.5,-3 -25.82,-3.93 -37.89,-4.76 -19.94,-1.38 -39.24,-2.46 -62.24,-12.02 -22.7,-9.42 -46.88,-21.68 -52.5,-24.56 -0.08,-0.05 -0.17,-0.09 -0.25,-0.13 -0.09,-0.05 -0.18,-0.09 -0.25,-0.13 -0.26,-0.15 -0.44,-0.24 -0.53,-0.3 1.58,-2.97 3.09,-5.97 4.52,-8.99 2.53,1.42 43.7,24.26 65.92,13.6 -8.27,-23.63 -54.8,-36.74 -56.26,-37.14 1.1,-3.17 2.14,-6.35 3.09,-9.56 0.01,0 0.01,0 0.01,0 0.01,-0.01 0.01,-0.02 0.01,-0.03 0,0 29.87,9.52 55.75,20.28 23,9.55 37.4,22.47 52.44,35.63 9.11,7.97 18.46,16.02 30.11,23.48 7.45,4.75 15.83,9.29 25.7,13.38 z" id="path1162"/>
		<path d="m 2506.77,481.39 c -22.22,10.66 -63.39,-12.17 -65.92,-13.6 -0.08,-0.04 -0.12,-0.07 -0.12,-0.07 3.68,-7.62 6.95,-15.45 9.78,-23.48 0,0 0,0 0.01,0 1.44,0.41 47.98,13.52 56.25,37.15 z" id="path1164"/>
		<path class="st4" d="m 2243.92,599.7 c 0,-0.02 0,-0.03 0,-0.03" id="path1166"/>
		<path class="st6" d="m 1973,608.45 c -5.33,10.7 -10.87,21.59 -18.72,32.78 -0.59,-0.6 -1.19,-1.2 -1.76,-1.81 -10.4,-10.64 -20.26,-21.98 -29.54,-34 10.36,-6.71 20.52,-13.3 30.46,-19.73 6.16,7.82 12.66,15.42 19.56,22.76 z" id="path1168"/>
		<path class="st6" d="m 2024.99,654.08 c -3.15,11.57 -6.45,23.34 -11.98,35.87 -0.58,-0.39 -1.16,-0.79 -1.73,-1.18 l -0.01,-0.01 c -0.01,0 -0.01,-0.01 -0.02,-0.01 -9.37,-6.4 -18.51,-13.23 -27.35,-20.49 -0.1,-0.08 -0.21,-0.17 -0.31,-0.26 -1.75,-1.43 -3.49,-2.88 -5.22,-4.36 -7.06,-6.02 -13.93,-12.32 -20.59,-18.9 11.23,-7.84 22.14,-13.36 32.87,-18.68 10.73,9.92 22.18,19.29 34.34,28.02 z" id="path1170"/>
		<path class="st6" d="m 2084.86,688.79 c -0.81,11.92 -1.77,24.08 -4.71,37.4 -0.63,-0.26 -1.25,-0.52 -1.88,-0.81 -0.08,-0.03 -0.16,-0.06 -0.24,-0.1 -10.39,-4.41 -20.6,-9.3 -30.61,-14.64 -2.12,-1.12 -4.23,-2.28 -6.33,-3.45 -8.12,-4.53 -16.09,-9.36 -23.9,-14.49 9.5,-9.89 19.14,-17.45 28.65,-24.76 12.7,7.85 25.74,14.8 39.02,20.85 z" id="path1172"/>
		<path class="st6" d="m 2153.02,748.68 c -0.73,-0.15 -1.47,-0.3 -2.2,-0.46 -0.03,-0.01 -0.05,-0.01 -0.07,-0.02 -22.49,-4.74 -44.56,-11.45 -65.94,-20.1 7.36,-11.49 15.31,-20.74 23.17,-29.74 h 0.02 c 13.94,5.19 28.08,9.45 42.35,12.79 1.51,11.84 2.95,23.93 2.67,37.53 z" id="path1174"/>
		<path class="st6" d="m 2228.88,756.62 c -0.43,0 -0.86,-0.01 -1.29,-0.01 -0.42,0 -0.85,-0.01 -1.27,-0.02 -11.33,-0.15 -22.65,-0.8 -33.9,-1.92 -2.39,-0.24 -4.78,-0.51 -7.16,-0.79 -9.13,-1.09 -18.22,-2.48 -27.25,-4.21 4.98,-12.69 10.97,-23.31 16.93,-33.67 14.61,2.33 29.28,3.74 43.96,4.22 3.8,11.34 7.59,22.95 9.98,36.4 z" id="path1176"/>
		<path class="st6" d="m 2304.84,749.64 c -0.81,0.16 -1.62,0.31 -2.43,0.46 -0.02,0 -0.05,0.01 -0.07,0.01 h -0.01 c -11.61,2.15 -23.27,3.77 -34.96,4.85 -0.74,0.07 -1.47,0.14 -2.21,0.21 -10.12,0.87 -20.25,1.35 -30.36,1.44 h -0.83 c 2.42,-13.47 6.24,-25.09 10.08,-36.44 14.7,-0.56 29.34,-2.03 43.83,-4.41 5.97,10.42 11.98,21.1 16.96,33.88 z" id="path1178"/>
		<path class="st6" d="m 2377.96,727.92 c -0.77,0.31 -1.54,0.63 -2.3,0.92 v 0.01 c -21.54,8.63 -43.57,15.22 -65.84,19.8 -0.26,-13.74 1.24,-25.91 2.79,-37.84 h 0.01 c 14.26,-3.39 28.32,-7.66 42.09,-12.8 7.89,9.04 15.86,18.35 23.25,29.91 z" id="path1180"/>
		<path class="st6" d="m 2445.41,692.33 c -0.66,0.43 -1.31,0.86 -1.98,1.28 -19.6,12.76 -39.94,23.53 -60.77,32.36 h -0.01 c -2.92,-13.41 -3.84,-25.64 -4.64,-37.64 13.3,-6.09 26.26,-13.01 38.79,-20.76 9.5,7.33 19.12,14.89 28.61,24.76 z" id="path1182"/>
		<path class="st6" d="m 2504.75,644.39 c -0.55,0.55 -1.11,1.1 -1.68,1.64 -0.01,0.01 -0.02,0.02 -0.03,0.02 -8.12,7.9 -16.63,15.49 -25.56,22.75 -1.85,1.52 -3.74,3.02 -5.63,4.5 -7.16,5.62 -14.57,11.02 -22.21,16.2 -5.47,-12.57 -8.75,-24.38 -11.88,-35.97 11.81,-8.52 23.15,-17.84 33.95,-27.95 10.8,5.37 21.77,10.93 33.04,18.81 z" id="path1184"/>
		<path class="st6" d="m 2553.59,585.76 c -0.45,0.67 -0.91,1.34 -1.38,2 -12.89,18.77 -27.52,36.53 -43.88,53.05 -7.88,-11.32 -13.42,-22.32 -18.77,-33.13 9.83,-10.62 19.12,-21.95 27.78,-33.99 11.69,3.18 23.58,6.49 36.25,12.07 z" id="path1186"/>
		<path class="st7" d="m 2552.1,513.94 c -6.02,13.16 -12.91,26.07 -20.69,38.68 -12.17,-15.82 -23.77,-31.26 -44.44,-45.1 -20.52,-13.75 -44.26,-27.16 -49.62,-30.17 5.62,2.88 29.8,15.14 52.5,24.56 23.01,9.56 42.31,10.65 62.25,12.03 z" id="path1188"/>
		<path class="st6" d="m 2589.99,518.69 c -0.27,0.66 -0.55,1.31 -0.83,1.96 -9.05,21.13 -19.99,41.53 -32.77,60.92 -9.98,-9.6 -17.59,-19.35 -24.98,-28.96 7.77,-12.61 14.67,-25.52 20.69,-38.68 12.07,0.83 24.39,1.77 37.89,4.76 z" id="path1190"/>
		<path class="st4" d="m 2150.75,748.21 c 0.05,-0.23 0.07,-0.36 0.07,-0.36" id="path1192"/>
		<path class="st6" d="m 2084.81,728.11 c -4.79,7.46 -9.33,15.86 -13.43,25.75 4.1,-9.88 6.86,-19.02 8.77,-27.67 -0.63,-0.26 -1.25,-0.52 -1.88,-0.81 -3.63,8.45 -65.78,153.76 -66.13,195.78 -0.37,45 13.73,67.55 14.68,93.22 15.53,-20.47 40.01,-30.84 65.55,-67.9 21.76,-31.59 50.86,-163.19 57.21,-192.73 0.09,-0.47 0.19,-0.92 0.28,-1.33 0.14,-0.64 0.26,-1.22 0.37,-1.73 0.13,-0.6 0.23,-1.11 0.32,-1.53 0.04,-0.18 0.07,-0.34 0.1,-0.48 0.04,-0.2 0.07,-0.36 0.1,-0.49 -22.49,-4.72 -44.56,-11.44 -65.94,-20.08 z m -18.36,162.35 44.44,-152.75 c 2.29,0.74 4.59,1.46 6.87,2.16 z" id="path1194"/>
		<path class="st4" d="m 2078.42,725 c 0,0 -0.06,0.13 -0.16,0.38" id="path1196"/>
		<path d="m 2117.76,739.88 -51.31,150.58 44.44,-152.75 c 2.3,0.75 4.59,1.47 6.87,2.17 z" id="path1198"/>
		<path class="st4" d="m 2226.33,756.2 c 0,0 0,0.13 -0.01,0.38" id="path1200"/>
		<path class="st6" d="m 2226.32,756.59 c 0,0.53 -0.01,1.59 -0.03,3.12 0,0.19 0,0.38 -0.01,0.59 0,0.21 0,0.41 -0.01,0.63 0,0.22 0,0.44 -0.01,0.66 -0.39,28.87 -3.02,165.37 -18.33,200.86 -17.81,41.33 -39.8,56.28 -51.03,79.38 -5.95,-25 -24.17,-44.36 -32.59,-88.57 -7.17,-37.69 19.2,-169.91 25.27,-199.51 0.1,-0.47 0.2,-0.91 0.28,-1.33 0.14,-0.64 0.26,-1.22 0.37,-1.73 0.13,-0.6 0.23,-1.11 0.32,-1.53 0.04,-0.18 0.07,-0.34 0.1,-0.48 0.04,-0.2 0.07,-0.36 0.1,-0.49 0.03,0.01 0.05,0.01 0.07,0.02 0.73,0.16 1.47,0.31 2.2,0.46 -0.19,8.89 -1.1,18.42 -3.2,28.96 2.11,-10.55 4.93,-19.7 8.19,-27.97 9.03,1.73 18.12,3.13 27.25,4.21 l -13.79,158.44 20.94,-157.65 c 11.26,1.13 22.57,1.78 33.91,1.93 z" id="path1202"/>
		<path class="st4" d="m 2150.75,748.21 c 0.05,-0.23 0.07,-0.36 0.07,-0.36" id="path1204"/>
		<path d="m 2192.42,754.62 -0.01,0.05 -20.94,157.65 13.79,-158.44 v -0.05 c 2.39,0.28 4.78,0.55 7.16,0.79 z" id="path1206"/>
		<path class="st4" d="m 2302.34,750.11 c -0.01,-0.03 -0.01,-0.06 -0.02,-0.08 -0.05,-0.23 -0.07,-0.36 -0.07,-0.36" id="path1208"/>
		<path class="st6" d="m 2324.41,955.56 c -9.41,44.01 -28.07,62.96 -34.58,87.81 -10.7,-23.35 -32.36,-38.79 -49.23,-80.5 -14.62,-36.11 -14.49,-174.57 -14.33,-201.94 0.01,-0.22 0.01,-0.42 0.01,-0.63 0.01,-0.21 0.01,-0.4 0.01,-0.59 0.02,-1.53 0.03,-2.58 0.03,-3.12 0.42,0.01 0.85,0.02 1.27,0.02 0.43,0 0.86,0.01 1.29,0.01 1.55,8.7 2.51,18.18 2.51,28.85 0.02,-10.68 1,-20.16 2.58,-28.86 h 0.83 c 10.11,-0.09 20.24,-0.57 30.36,-1.44 -1.2,0.1 -2.41,0.2 -3.61,0.3 l 17.4,158.12 -10.21,-158.75 c -0.46,0.05 -0.92,0.08 -1.38,0.12 11.69,-1.08 23.35,-2.7 34.96,-4.85 h 0.01 c 0.07,0.43 0.22,1.17 0.41,2.2 3.98,21.23 30.03,164.09 21.67,203.25 z" id="path1210"/>
		<path class="st4" d="m 2226.33,756.2 c 0,0 0,0.13 -0.01,0.38" id="path1212"/>
		<path d="m 2278.96,913.59 -17.4,-158.12 c 1.2,-0.1 2.41,-0.2 3.61,-0.3 0.74,-0.07 1.47,-0.13 2.21,-0.21 0.46,-0.04 0.92,-0.07 1.38,-0.12 z" id="path1214"/>
		<path class="st4" d="m 2375.65,728.84 c -0.13,-0.32 -0.2,-0.49 -0.2,-0.49" id="path1216"/>
		<path class="st6" d="m 2376.54,731.05 c -0.41,-1.01 -0.71,-1.75 -0.89,-2.2 -21.54,8.63 -43.57,15.22 -65.84,19.8 0.17,8.88 1.06,18.41 3.15,28.95 -2.09,-10.53 -4.89,-19.68 -8.12,-27.96 -0.81,0.16 -1.62,0.31 -2.43,0.46 4.53,23.68 31.89,163.42 53.62,196.51 24.69,37.62 49.43,51.53 64.49,72.34 1.54,-25.64 16.14,-47.87 16.78,-92.86 0.57,-39.92 -52.49,-174.32 -60.76,-195.04 z m -39.93,11.13 c 2.31,-0.65 4.63,-1.32 6.92,-2.01 l 40.99,153.71 z" id="path1218"/>
		<path class="st4" d="m 2302.41,750.1 c -0.06,-0.27 -0.1,-0.53 -0.15,-0.78" id="path1220"/>
		<path class="st4" d="m 2302.33,750.11 c 0,-0.03 0,-0.06 -0.01,-0.08 -0.05,-0.23 -0.07,-0.36 -0.07,-0.36" id="path1222"/>
		<path d="m 2384.52,893.88 -47.91,-151.7 c 2.31,-0.65 4.63,-1.32 6.92,-2.01 z" id="path1224"/>
		<path class="st4" d="m 2443.43,693.62 c -0.19,-0.28 -0.28,-0.43 -0.28,-0.43" id="path1226"/>
		<path class="st6" d="m 2542.26,875.15 c -7.12,-38.65 -82.95,-157.02 -96.9,-178.58 -0.11,-0.17 -0.22,-0.33 -0.32,-0.49 -0.1,-0.16 -0.21,-0.31 -0.3,-0.46 -0.61,-0.94 -1.05,-1.61 -1.31,-2.01 -19.6,12.76 -39.94,23.53 -60.77,32.36 1.88,8.69 4.63,17.88 8.73,27.81 -4.1,-9.94 -8.64,-18.37 -13.43,-25.87 -0.77,0.31 -1.54,0.63 -2.3,0.92 v 0.01 c 0.18,0.45 0.48,1.19 0.89,2.2 8.38,20.73 63.08,154.47 91.08,182.92 31.56,32.08 57.47,38.06 76.3,55.54 -3.51,-25.45 6.48,-50.1 -1.67,-94.35 z M 2407.64,714.39 c 2.14,-1.1 4.28,-2.2 6.4,-3.32 l 70.19,142.75 z" id="path1228"/>
		<path class="st4" d="m 2375.65,728.84 c -0.13,-0.32 -0.2,-0.49 -0.2,-0.49" id="path1230"/>
		<path d="m 2484.22,853.82 -76.59,-139.43 c 2.14,-1.1 4.28,-2.2 6.4,-3.32 z" id="path1232"/>
		<path class="st6" d="m 2655.31,896.92 c -21.88,-13.47 -48.46,-14.27 -85.66,-39.58 -32.49,-22.08 -110.16,-139.25 -124.29,-160.77 -0.11,-0.17 -0.22,-0.33 -0.32,-0.49 -0.1,-0.16 -0.21,-0.31 -0.3,-0.46 -0.61,-0.94 -1.05,-1.61 -1.31,-2.01 0.66,-0.42 1.32,-0.85 1.98,-1.28 6.17,6.42 12.29,13.83 18.26,22.79 -5.98,-8.96 -10.46,-17.46 -14.02,-25.62 7.64,-5.18 15.05,-10.58 22.21,-16.2 l 102.31,121.8 -96.69,-126.31 c 8.93,-7.26 17.44,-14.84 25.56,-22.75 0.57,0.59 2.01,2.06 4.19,4.26 0.2,0.2 0.39,0.4 0.6,0.61 21.98,22.72 113.38,118.45 127.43,153.79 16.63,41.83 11.65,67.95 20.05,92.22 z" id="path1234"/>
		<path class="st4" d="m 2443.43,693.62 c -0.19,-0.28 -0.28,-0.43 -0.28,-0.43" id="path1236"/>
		<path d="m 2574.18,795.11 -102.31,-121.8 -0.01,-0.01 c 1.89,-1.49 3.77,-3 5.63,-4.51 l 0.01,0.02 z" id="path1238"/>
		<path class="st4" d="m 2552.22,587.76 c -0.34,-0.22 -0.51,-0.35 -0.51,-0.35" id="path1240"/>
		<path class="st6" d="m 2712.75,717.49 c -21.51,-33.21 -138.21,-114.36 -158.15,-128.1 -0.01,0 -0.01,0 -0.01,0 -0.34,-0.22 -0.65,-0.44 -0.93,-0.64 -0.64,-0.43 -1.12,-0.77 -1.45,-0.99 -12.89,18.77 -27.52,36.53 -43.88,53.05 5.07,7.29 11.1,14.7 18.67,22.3 -7.58,-7.6 -14.98,-13.65 -22.26,-18.72 -0.55,0.55 -1.11,1.1 -1.68,1.64 0,0 1.49,1.52 4.16,4.28 0.2,0.2 0.39,0.4 0.6,0.61 22.75,23.06 115.94,116.2 150.82,130.99 41.44,17.56 67.66,13.17 91.74,22.11 -12.96,-22.17 -13.16,-48.76 -37.63,-86.53 z m -185.74,-96.88 c 1.56,-1.84 3.11,-3.68 4.64,-5.53 l 119.48,105.03 z" id="path1242"/>
		<path class="st4" d="m 2503.05,646.05 c -0.19,-0.2 -0.28,-0.29 -0.28,-0.29" id="path1244"/>
		<path d="m 2651.13,720.12 -124.12,-99.51 c 1.56,-1.84 3.11,-3.68 4.64,-5.53 z" id="path1246"/>
		<path class="st4" d="m 2589.16,520.65 c -0.46,-0.2 -0.7,-0.3 -0.7,-0.3" id="path1248"/>
		<path class="st6" d="m 2771.73,616.82 c -28.98,-29.83 -171.35,-91.35 -182.56,-96.17 -9.05,21.13 -19.99,41.53 -32.77,60.92 6.38,6.14 13.73,12.22 22.61,18.17 -8.89,-5.95 -17.31,-10.43 -25.41,-13.98 -0.45,0.67 -0.91,1.34 -1.38,2 0.33,0.22 0.81,0.56 1.45,0.99 0.28,0.19 0.59,0.4 0.93,0.64 0,0 0,0 0.01,0 19.98,13.61 137.89,93.14 176.64,101.17 44.06,9.14 68.93,-0.29 94.29,3.78 -17.06,-19.21 -22.45,-45.25 -53.81,-77.52 z M 2570.75,558.1 c 1.18,-2.1 2.34,-4.2 3.47,-6.32 l 137.68,79.71 z" id="path1250"/>
		<path class="st4" d="m 2552.22,587.76 c -0.34,-0.22 -0.51,-0.35 -0.51,-0.35" id="path1252"/>
		<path d="M 2711.9,631.49 2570.75,558.1 c 1.18,-2.1 2.34,-4.2 3.47,-6.32 z" id="path1254"/>
		<path class="st8" d="m 2011.27,688.76 c -0.07,0.11 -0.19,0.27 -0.32,0.47 -0.05,0.07 -0.09,0.13 -0.14,0.21 -0.08,0.11 -0.17,0.23 -0.25,0.37 -0.07,0.09 -0.14,0.19 -0.21,0.29 -0.05,0.07 -0.1,0.15 -0.16,0.22 -0.05,0.08 -0.1,0.16 -0.16,0.24 -0.22,0.33 -0.46,0.67 -0.73,1.07 -0.2,0.27 -0.38,0.55 -0.58,0.84 -0.03,0.04 -0.06,0.08 -0.08,0.12 -15.69,22.7 -94.54,135.56 -127.19,156.71 -37.77,24.47 -64.36,24.68 -86.53,37.65 8.94,-24.09 4.55,-50.31 22.11,-91.74 16.55,-39.03 130.78,-151.17 135.49,-155.79 0.57,0.61 1.17,1.21 1.76,1.81 -5.05,7.2 -11.05,14.53 -18.57,22.04 7.52,-7.5 14.87,-13.5 22.08,-18.53 6.67,6.57 13.53,12.88 20.59,18.9 l -99.51,124.11 105.03,-119.48 c 8.84,7.26 17.97,14.09 27.35,20.49 0.01,-0.01 0.01,0 0.02,0 z" id="path1256"/>
		<path class="st4" d="m 1952.67,639.28 c 0,0 -0.05,0.05 -0.15,0.14" id="path1258"/>
		<path d="m 1983.91,668.26 -105.03,119.48 99.51,-124.11 0.01,-0.01 c 1.72,1.48 3.47,2.94 5.21,4.37 0.09,0.1 0.2,0.18 0.3,0.27 z" id="path1260"/>
		<path class="st4" d="m 2078.13,725 c 0,0 -0.04,0.09 -0.11,0.28" id="path1262"/>
		<path class="st6" d="m 2078.02,725.28 c -3.1,7.28 -65.62,153.58 -95.9,183 -32.27,31.36 -55.65,32.82 -74.87,49.87 4.07,-25.37 -5.36,-50.23 3.78,-94.29 7.51,-36.22 77.43,-141.43 97.6,-171.27 0.03,-0.04 0.06,-0.08 0.08,-0.12 0.2,-0.29 0.38,-0.57 0.58,-0.84 0.27,-0.39 0.52,-0.74 0.73,-1.07 0.06,-0.08 0.11,-0.16 0.16,-0.24 0.06,-0.07 0.11,-0.15 0.16,-0.22 0.07,-0.1 0.13,-0.2 0.21,-0.29 0.08,-0.14 0.17,-0.26 0.25,-0.37 0.05,-0.07 0.09,-0.14 0.14,-0.21 0.13,-0.2 0.24,-0.36 0.32,-0.47 l 0.01,0.01 c 0.57,0.39 1.15,0.79 1.73,1.18 -3.5,7.97 -7.9,16.24 -13.71,24.97 5.85,-8.7 11.83,-15.92 17.87,-22.2 7.81,5.13 15.78,9.96 23.9,14.49 l -73.33,141.06 79.66,-137.61 c 10.03,5.32 20.24,10.21 30.63,14.62 z" id="path1264"/>
		<path class="st4" d="m 2009.31,691.63 c 0.72,-1.08 1.38,-2.04 1.95,-2.88 0.15,-0.22 0.29,-0.43 0.43,-0.64" id="path1266"/>
		<path class="st4" d="m 2011.27,688.76 c 0.01,-0.01 0.02,-0.03 0.04,-0.04 0.02,-0.04 0.04,-0.07 0.07,-0.1 0.02,-0.05 0.04,-0.07 0.04,-0.07" id="path1268"/>
		<path d="m 2047.44,710.58 -0.04,0.07 -79.66,137.61 73.33,-141.06 0.05,-0.08 c 2.11,1.16 4.21,2.32 6.32,3.46 z" id="path1270"/>
		<path class="st6" d="m 2463.67,715.13 c -5.98,-8.96 -12.09,-16.37 -18.26,-22.79 -9.49,-9.87 -19.11,-17.43 -28.6,-24.76 -15.85,-12.25 -31.34,-23.88 -45.18,-44.65 -13.55,-20.32 -26.78,-43.78 -29.96,-49.49 -0.05,-0.09 -0.09,-0.18 -0.14,-0.26 -0.03,-0.06 -0.06,-0.1 -0.08,-0.15 -0.04,-0.07 -0.07,-0.14 -0.1,-0.21 -0.1,-0.2 -0.18,-0.35 -0.22,-0.45 h 0.01 c 2.94,-1.58 5.85,-3.23 8.75,-4.95 1.7,3.33 23.06,44.38 47.21,47.84 6.14,-23.81 -24.02,-59.66 -26.06,-62.03 2.7,-2.02 5.32,-4.08 7.89,-6.22 0.13,0.15 0.34,0.39 0.62,0.71 0.02,0.03 0.04,0.06 0.07,0.08 3.69,4.67 20.58,26.26 34.35,46.91 13.83,20.75 18.62,39.51 23.82,58.83 3.13,11.59 6.41,23.4 11.88,35.97 3.54,8.16 8.02,16.66 14,25.62 z" id="path1272"/>
		<path class="st7" d="m 2471.72,625.59 c -10.8,10.11 -22.14,19.42 -33.95,27.95 -5.21,-19.32 -9.99,-38.08 -23.82,-58.83 -13.77,-20.65 -30.66,-42.24 -34.35,-46.91 3.99,4.69 21.73,25.37 39.16,42.85 17.61,17.64 35.05,26.02 52.96,34.94 z" id="path1274"/>
		<path class="st7" d="m 2517.35,573.69 c -8.65,12.03 -17.94,23.37 -27.78,33.99 -8.87,-17.92 -17.22,-35.34 -34.82,-52.98 -17.63,-17.67 -38.56,-35.65 -42.92,-39.37 4.66,3.7 26.22,20.64 46.84,34.45 20.68,13.85 39.4,18.68 58.68,23.91 z" id="path1276"/>
		<path class="st6" d="m 2527.01,663.11 c -7.58,-7.6 -14.98,-13.65 -22.26,-18.72 -11.28,-7.89 -22.24,-13.44 -33.03,-18.81 -17.92,-8.92 -35.35,-17.3 -52.97,-34.95 -17.43,-17.48 -35.17,-38.15 -39.16,-42.85 -0.03,-0.03 -0.05,-0.06 -0.07,-0.08 -0.29,-0.36 -0.49,-0.61 -0.59,-0.74 2.59,-2.11 5.12,-4.29 7.59,-6.51 0.01,-0.01 0.02,-0.02 0.03,-0.03 -0.04,-0.06 -0.07,-0.1 -0.09,-0.13 -0.03,-0.03 -0.04,-0.05 -0.04,-0.05 6.32,-5.64 12.33,-11.62 18.03,-17.95 0.02,0.02 0.06,0.05 0.11,0.09 2.24,-2.51 4.41,-5.06 6.52,-7.64 0.1,0.07 0.24,0.19 0.44,0.34 0.08,0.07 0.19,0.15 0.3,0.24 4.36,3.72 25.29,21.7 42.92,39.37 17.6,17.63 25.95,35.06 34.82,52.98 5.35,10.82 10.89,21.81 18.77,33.13 5.08,7.3 11.11,14.72 18.68,22.31 z" id="path1278"/>
		<path class="st7" d="m 2416.8,667.57 c -12.53,7.75 -25.49,14.68 -38.79,20.76 -1.34,-19.98 -2.37,-39.31 -11.89,-62.36 -9.38,-22.69 -21.59,-46.9 -24.45,-52.54 3.18,5.7 16.41,29.16 29.96,49.49 13.84,20.77 29.33,32.4 45.17,44.65 z" id="path1280"/>
		<path class="st6" d="m 2391.39,753.79 c -4.1,-9.94 -8.64,-18.37 -13.43,-25.87 -7.39,-11.56 -15.36,-20.87 -23.25,-29.92 -13.16,-15.11 -26.07,-29.54 -35.6,-52.6 -9.48,-22.94 -17.99,-49.01 -19.82,-54.67 -0.04,-0.13 -0.07,-0.25 -0.11,-0.37 -0.05,-0.18 -0.08,-0.32 -0.11,-0.42 h 0.01 c 3.19,-0.97 6.38,-2.02 9.54,-3.15 1.18,4.15 14.1,48.01 36.95,56.04 10.61,-22.02 -11.65,-62.72 -13.42,-65.87 3.01,-1.45 5.98,-2.97 8.94,-4.58 0.07,0.11 0.14,0.25 0.25,0.44 0.03,0.07 0.07,0.13 0.1,0.21 0.03,0.05 0.06,0.09 0.08,0.15 0.05,0.08 0.09,0.17 0.14,0.26 2.87,5.64 15.07,29.85 24.45,52.54 9.52,23.06 10.55,42.39 11.89,62.36 0.8,12 1.71,24.23 4.64,37.64 h 0.01 c 1.89,8.68 4.64,17.87 8.74,27.81 z" id="path1282"/>
		<path class="st7" d="m 2354.7,698 c -13.77,5.14 -27.82,9.41 -42.09,12.8 h -0.01 c 2.58,-19.85 5.34,-39.02 0.5,-63.49 -4.84,-24.5 -12.25,-51.08 -13.81,-56.59 1.83,5.67 10.34,31.73 19.82,54.67 9.52,23.07 22.44,37.5 35.59,52.61 z" id="path1284"/>
		<path class="st6" d="m 2309.82,748.65 c 0.17,8.88 1.06,18.41 3.15,28.95 -2.09,-10.53 -4.89,-19.68 -8.12,-27.96 -4.98,-12.77 -10.99,-23.46 -16.97,-33.88 -9.96,-17.39 -19.82,-34.07 -24.67,-58.57 -4.82,-24.35 -8.08,-51.58 -8.77,-57.49 -0.01,-0.11 -0.02,-0.22 -0.03,-0.32 -0.01,-0.2 -0.03,-0.36 -0.04,-0.48 3.33,-0.33 6.66,-0.73 9.98,-1.22 0.36,4.39 4.5,49.82 25.3,62.16 14.61,-19.4 0.96,-63.26 -0.29,-67.16 3.24,-0.84 6.46,-1.75 9.67,-2.73 0.03,0.11 0.08,0.24 0.13,0.41 0.04,0.11 0.07,0.23 0.11,0.37 1.56,5.52 8.97,32.09 13.81,56.59 4.84,24.47 2.09,43.63 -0.5,63.49 -1.53,11.92 -3.03,24.1 -2.76,37.84 z" id="path1286"/>
		<path class="st7" d="m 2244.04,720.17 c 6.42,-19 12.88,-37.27 12.91,-62.27 0.03,-24.98 -2.05,-52.51 -2.51,-58.2 0.68,5.91 3.94,33.14 8.77,57.49 4.85,24.5 14.71,41.18 24.67,58.57 -14.49,2.37 -29.13,3.84 -43.84,4.41 z" id="path1288"/>
		<path class="st6" d="m 2256.95,657.9 c -0.03,25 -6.49,43.27 -12.91,62.27 -3.84,11.35 -7.66,22.97 -10.08,36.44 -1.57,8.7 -2.56,18.19 -2.58,28.86 0,-10.68 -0.96,-20.15 -2.51,-28.85 -2.39,-13.45 -6.18,-25.05 -9.98,-36.39 -6.4,-19.05 -12.84,-37.36 -12.81,-62.38 0.03,-24.83 2.14,-52.15 2.61,-58.08 0.02,-0.14 0.03,-0.27 0.04,-0.38 0.02,-0.18 0.04,-0.33 0.05,-0.44 h 0.02 c 3.22,0.31 6.45,0.56 9.68,0.74 0.11,0.01 0.22,0.01 0.33,0.02 -0.5,4.28 -5.33,49.74 12.7,65.91 18.14,-16.2 13.28,-61.96 12.81,-65.93 3.34,-0.18 6.68,-0.44 10.02,-0.78 0.02,0.13 0.04,0.29 0.07,0.48 0.01,0.09 0.02,0.21 0.03,0.32 0.46,5.68 2.54,33.21 2.51,58.19 z" id="path1290"/>
		<path class="st7" d="m 2218.9,720.22 c -14.68,-0.49 -29.35,-1.89 -43.96,-4.22 10.02,-17.43 19.97,-34.11 24.87,-58.67 4.9,-24.48 8.21,-51.87 8.89,-57.57 -0.48,5.93 -2.58,33.26 -2.61,58.08 -0.03,25.02 6.41,43.33 12.81,62.38 z" id="path1292"/>
		<path class="st6" d="m 2208.78,598.93 c -0.01,0.12 -0.03,0.26 -0.04,0.44 -0.01,0.11 -0.02,0.24 -0.04,0.38 -0.67,5.69 -3.99,33.09 -8.89,57.57 -4.91,24.56 -14.85,41.24 -24.87,58.67 -5.97,10.36 -11.95,20.98 -16.93,33.67 -3.26,8.27 -6.08,17.43 -8.19,27.97 2.11,-10.54 3.02,-20.07 3.2,-28.96 0.27,-13.61 -1.16,-25.7 -2.68,-37.53 -2.56,-19.97 -5.33,-39.21 -0.41,-63.8 4.79,-23.96 12.03,-49.92 13.81,-56.18 0.03,-0.09 0.06,-0.19 0.08,-0.28 0.01,-0.03 0.02,-0.07 0.03,-0.09 0.09,-0.3 0.17,-0.54 0.22,-0.69 3.21,0.97 6.43,1.87 9.68,2.7 -1.31,4.06 -14.94,47.73 -0.41,67.13 20.99,-12.38 25.13,-58.33 25.44,-62.19 3.33,0.46 6.66,0.87 10,1.19 z" id="path1294"/>
		<path class="st7" d="m 2150.35,711.16 c -14.27,-3.34 -28.41,-7.6 -42.35,-12.79 h -0.02 c 13.26,-15.15 26.28,-29.58 35.91,-52.74 9.42,-22.68 17.9,-48.43 19.86,-54.45 -1.78,6.27 -9.02,32.23 -13.81,56.18 -4.92,24.58 -2.15,43.83 0.41,63.8 z" id="path1296"/>
		<path class="st6" d="m 2164.06,590.1 c -0.05,0.17 -0.11,0.4 -0.2,0.69 -0.01,0.03 -0.02,0.07 -0.03,0.09 -0.03,0.09 -0.06,0.19 -0.08,0.28 -1.97,6.02 -10.44,31.77 -19.86,54.45 -9.63,23.16 -22.65,37.59 -35.91,52.74 -7.86,9 -15.81,18.25 -23.17,29.74 -4.79,7.46 -9.33,15.86 -13.43,25.75 4.1,-9.88 6.86,-19.02 8.77,-27.67 2.94,-13.32 3.9,-25.47 4.71,-37.4 1.4,-20.1 2.43,-39.52 12.05,-62.69 9.57,-23.06 22.07,-47.65 24.7,-52.75 0.07,-0.14 0.13,-0.26 0.2,-0.37 0.03,-0.05 0.05,-0.08 0.07,-0.12 0.03,-0.04 0.05,-0.07 0.07,-0.1 2.96,1.58 5.96,3.09 8.97,4.52 -2.2,3.96 -23.91,43.94 -13.48,65.72 22.94,-8.02 35.94,-52.08 37.07,-56 3.15,1.12 6.33,2.16 9.55,3.12 z" id="path1298"/>
		<path class="st7" d="m 2083.51,548.06 c -3.67,4.64 -20.63,26.21 -34.46,46.85 -13.96,20.86 -18.76,39.71 -24.05,59.16 -12.17,-8.73 -23.61,-18.09 -34.33,-28.03 18.08,-8.95 35.67,-17.3 53.46,-35.04 17.67,-17.65 35.67,-38.6 39.38,-42.94 z" id="path1300"/>
		<path class="st7" d="m 2121.6,573.35 c -2.62,5.1 -15.12,29.7 -24.7,52.75 -9.63,23.17 -10.66,42.59 -12.05,62.69 -13.28,-6.05 -26.32,-13 -39.03,-20.85 15.95,-12.28 31.53,-23.89 45.49,-44.73 13.98,-20.87 27.62,-45.08 30.29,-49.86 z" id="path1302"/>
		<path class="st6" d="m 2121.91,572.75 c -0.01,0.03 -0.03,0.07 -0.05,0.11 -0.02,0.04 -0.04,0.07 -0.07,0.12 -0.07,0.1 -0.12,0.22 -0.2,0.37 -2.68,4.79 -16.31,28.99 -30.3,49.87 -13.95,20.84 -29.54,32.45 -45.49,44.73 -9.51,7.31 -19.15,14.87 -28.65,24.76 -6.04,6.28 -12.02,13.5 -17.87,22.2 5.81,-8.73 10.21,-17 13.71,-24.97 5.53,-12.53 8.83,-24.3 11.98,-35.87 5.29,-19.45 10.09,-38.3 24.05,-59.16 13.83,-20.64 30.79,-42.22 34.46,-46.85 0.07,-0.07 0.11,-0.14 0.17,-0.21 0.1,-0.13 0.2,-0.24 0.28,-0.34 0.02,-0.01 0.03,-0.03 0.03,-0.04 2.6,2.14 5.24,4.2 7.92,6.21 -3.04,3.58 -32.01,38.45 -26.04,61.81 23.99,-3.38 45.3,-43.82 47.27,-47.66 2.92,1.72 5.84,3.35 8.8,4.92 z" id="path1304"/>
		<path class="st6" d="m 2455.06,429.68 c -0.46,1.67 -0.94,3.32 -1.44,4.98 0,0.01 0,0.02 -0.01,0.03 0,0 0,0 -0.01,0 -0.95,3.21 -1.99,6.4 -3.09,9.56 -0.01,0 -0.01,0 -0.01,0 -2.83,8.03 -6.1,15.86 -9.78,23.48 0,0 0.04,0.03 0.12,0.07 -1.43,3.02 -2.94,6.02 -4.52,8.99 0,0.01 -0.01,0.02 -0.01,0.02 -1.56,2.96 -3.2,5.89 -4.91,8.78 -0.04,-0.02 -0.07,-0.04 -0.08,-0.05 -4.34,7.31 -9.07,14.36 -14.17,21.12 0,0 0.06,0.05 0.16,0.13 -2,2.68 -4.06,5.33 -6.19,7.93 0,0.01 -0.01,0.01 -0.02,0.02 l -0.01,0.01 c -2.11,2.58 -4.28,5.13 -6.52,7.64 -0.06,-0.05 -0.09,-0.07 -0.11,-0.09 -5.69,6.33 -11.71,12.32 -18.03,17.95 0,0 0.05,0.07 0.13,0.18 -2.48,2.23 -5.02,4.42 -7.62,6.54 -0.01,0.02 -0.01,0.03 -0.02,0.02 l -0.01,0.01 c -2.58,2.14 -5.2,4.2 -7.89,6.22 -0.04,-0.05 -0.07,-0.08 -0.08,-0.1 -6.81,5.09 -13.88,9.8 -21.17,14.09 0,0 0.04,0.07 0.11,0.22 -2.89,1.72 -5.81,3.37 -8.75,4.95 h -0.01 c -0.01,0.01 -0.02,0.02 -0.03,0.01 -2.96,1.61 -5.94,3.13 -8.94,4.58 -0.05,-0.08 -0.07,-0.14 -0.09,-0.17 -7.68,3.67 -15.52,6.9 -23.52,9.68 0,0 0.03,0.11 0.08,0.32 -3.17,1.12 -6.35,2.17 -9.54,3.15 h -0.01 c -0.01,0.01 -0.01,0.01 -0.02,0.01 -3.21,0.98 -6.43,1.89 -9.67,2.73 -0.05,-0.13 -0.07,-0.22 -0.08,-0.25 -8.24,2.1 -16.57,3.74 -24.96,4.91 0,0 0.01,0.12 0.03,0.35 -3.32,0.49 -6.65,0.89 -9.98,1.22 0,0 -0.01,0.01 -0.02,0 h -0.01 c -3.34,0.34 -6.68,0.6 -10.02,0.78 -0.01,-0.13 -0.02,-0.22 -0.03,-0.25 -8.49,0.45 -16.98,0.43 -25.44,-0.06 0,0 -0.02,0.11 -0.05,0.33 -0.11,-0.01 -0.22,-0.01 -0.33,-0.02 -3.23,-0.18 -6.46,-0.43 -9.68,-0.74 h -0.03 c -3.33,-0.33 -6.67,-0.73 -9.98,-1.2 0.01,-0.12 0.02,-0.2 0.02,-0.23 -8.42,-1.22 -16.74,-2.88 -24.94,-5.01 0,0 -0.04,0.1 -0.1,0.31 -3.25,-0.82 -6.47,-1.72 -9.68,-2.7 h -0.03 c -3.21,-0.96 -6.4,-2 -9.56,-3.1 0.04,-0.13 0.07,-0.22 0.07,-0.25 -8.02,-2.84 -15.86,-6.11 -23.48,-9.79 0,0 -0.07,0.11 -0.19,0.32 -3.02,-1.43 -6.01,-2.94 -8.97,-4.52 -0.01,0.01 -0.01,0 -0.02,-0.01 -2.96,-1.56 -5.88,-3.2 -8.77,-4.91 0.07,-0.14 0.12,-0.23 0.14,-0.27 -7.31,-4.35 -14.36,-9.07 -21.12,-14.18 0,0 -0.08,0.1 -0.25,0.3 -2.68,-2 -5.32,-4.07 -7.92,-6.21 h -0.01 c -2.58,-2.12 -5.14,-4.31 -7.64,-6.55 0.09,-0.12 0.16,-0.2 0.19,-0.23 -6.32,-5.68 -12.32,-11.7 -17.94,-18.03 0,0 -0.09,0.07 -0.28,0.22 -0.95,-1.06 -1.88,-2.13 -2.81,-3.2 14.17,-9.16 27.07,-17.48 38.47,-24.84 61.55,66.18 163.73,79.86 241.3,28.03 39.74,-26.56 66.07,-65.66 77.24,-108.53 12.92,3.85 27.23,9.05 42.54,15.3 z" id="path1306"/>
		<path d="m 2442.22,578.22 c -24.36,1.32 -53.32,-34.77 -55.64,-37.71 -0.1,-0.12 -0.15,-0.19 -0.15,-0.19 6.32,-5.63 12.34,-11.62 18.02,-17.95 0.02,0.01 0.06,0.05 0.1,0.08 2.47,1.95 39.05,31.22 37.67,55.77 z" id="path1308"/>
	</g>
	
	
	
	
	
	
</g>




</svg>
